<svg xmlns="http://www.w3.org/2000/svg" xmlns:xlink="http://www.w3.org/1999/xlink" width="100" viewBox="0 0 75 74.999997" height="100" preserveAspectRatio="xMidYMid meet"><defs><clipPath id="7529cdf8e8"><path d="M 7.5 14 L 67.5 14 L 67.5 67.5 L 7.5 67.5 Z M 7.5 14 " clip-rule="nonzero"></path></clipPath><clipPath id="623e4091a4"><path d="M 24 7.5 L 52 7.5 L 52 32 L 24 32 Z M 24 7.5 " clip-rule="nonzero"></path></clipPath></defs><g clip-path="url(#7529cdf8e8)"><path fill="#07db3c" d="M 67.050781 62.570312 L 62.371094 50.867188 C 62.242188 50.546875 62.070312 50.253906 61.863281 49.988281 C 62.476562 49.300781 62.863281 48.402344 62.863281 47.40625 L 62.863281 18.109375 C 62.863281 15.96875 61.113281 14.21875 58.972656 14.21875 L 50.8125 14.21875 L 47.921875 16.890625 L 58.972656 16.890625 C 59.640625 16.890625 60.191406 17.441406 60.191406 18.109375 L 60.191406 47.40625 C 60.191406 48.070312 59.652344 48.621094 58.992188 48.632812 L 16.019531 48.632812 C 15.347656 48.621094 14.808594 48.070312 14.808594 47.40625 L 14.808594 18.109375 C 14.808594 17.441406 15.359375 16.890625 16.039062 16.890625 L 37.15625 16.890625 L 39.632812 14.21875 L 16.039062 14.21875 C 13.886719 14.21875 12.136719 15.96875 12.136719 18.109375 L 12.136719 47.40625 C 12.136719 48.402344 12.523438 49.300781 13.136719 49.988281 C 12.933594 50.253906 12.757812 50.546875 12.628906 50.867188 L 7.949219 62.570312 C 7.507812 63.667969 7.640625 64.910156 8.304688 65.886719 C 8.96875 66.867188 10.070312 67.453125 11.253906 67.453125 L 63.746094 67.453125 C 64.929688 67.453125 66.03125 66.867188 66.695312 65.886719 C 67.359375 64.910156 67.492188 63.667969 67.050781 62.570312 Z M 64.484375 64.390625 C 64.40625 64.507812 64.175781 64.78125 63.746094 64.78125 L 11.253906 64.78125 C 10.828125 64.78125 10.59375 64.507812 10.515625 64.390625 C 10.4375 64.273438 10.265625 63.957031 10.425781 63.5625 L 15.105469 51.859375 C 15.242188 51.519531 15.566406 51.300781 15.933594 51.300781 L 59.066406 51.300781 C 59.433594 51.300781 59.757812 51.519531 59.894531 51.859375 L 64.574219 63.5625 C 64.730469 63.957031 64.5625 64.273438 64.484375 64.390625 Z M 64.484375 64.390625 " fill-opacity="1" fill-rule="nonzero"></path></g><path fill="#07db3c" d="M 42.542969 57.292969 L 32.457031 57.292969 C 32.136719 57.292969 31.863281 57.519531 31.800781 57.832031 L 30.914062 62.503906 C 30.875 62.699219 30.925781 62.902344 31.054688 63.054688 C 31.179688 63.207031 31.367188 63.296875 31.566406 63.296875 L 43.433594 63.296875 C 43.632812 63.296875 43.820312 63.207031 43.945312 63.054688 C 44.074219 62.902344 44.125 62.699219 44.085938 62.503906 L 43.199219 57.832031 C 43.136719 57.519531 42.863281 57.292969 42.542969 57.292969 Z M 32.375 61.960938 L 33.011719 58.625 L 41.988281 58.625 L 42.625 61.960938 Z M 32.375 61.960938 " fill-opacity="1" fill-rule="nonzero"></path><path fill="#07db3c" d="M 48.332031 26.511719 C 47.503906 25.617188 46.378906 25.117188 45.15625 25.078125 C 43.957031 25.042969 42.789062 25.480469 41.90625 26.308594 C 41.019531 27.144531 40.507812 28.265625 40.472656 29.484375 C 40.460938 30.097656 40.332031 30.703125 40.109375 31.28125 C 40.015625 31.535156 39.839844 31.851562 39.6875 32.109375 C 39.519531 32.371094 39.324219 32.671875 39.082031 32.921875 C 38.226562 33.9375 36.933594 34.652344 35.554688 34.886719 C 34.042969 35.128906 32.453125 34.832031 31.175781 34.078125 C 30.765625 33.84375 30.375 33.5625 30.011719 33.238281 C 29.75 33.265625 29.480469 33.277344 29.199219 33.285156 L 29.023438 33.292969 C 28.632812 33.292969 27.804688 33.257812 26.851562 32.996094 C 27.664062 34.273438 28.761719 35.316406 30.039062 36.042969 C 31.753906 37.039062 33.886719 37.4375 35.917969 37.121094 C 37.84375 36.796875 39.585938 35.828125 40.777344 34.429688 C 41.125 34.058594 41.375 33.667969 41.617188 33.285156 C 41.832031 32.921875 42.0625 32.503906 42.214844 32.09375 C 42.53125 31.28125 42.707031 30.433594 42.734375 29.550781 C 42.753906 28.945312 43.003906 28.375 43.453125 27.957031 C 43.898438 27.546875 44.476562 27.324219 45.089844 27.34375 C 45.707031 27.351562 46.265625 27.613281 46.695312 28.058594 C 47.105469 28.507812 47.328125 29.082031 47.308594 29.699219 C 47.300781 29.839844 47.289062 29.976562 47.253906 30.097656 L 47.214844 30.332031 C 46.90625 31.683594 46.394531 32.929688 45.667969 34.066406 C 45.296875 34.683594 44.867188 35.183594 44.484375 35.621094 C 43.972656 36.199219 43.515625 36.628906 43.042969 36.984375 C 41.085938 38.566406 38.515625 39.460938 36 39.421875 C 33.503906 39.375 31.136719 38.519531 29.320312 36.992188 C 27.980469 35.882812 26.964844 34.457031 26.378906 32.847656 C 25.539062 32.539062 24.671875 32.066406 23.984375 31.261719 C 23.84375 31.113281 23.734375 30.945312 23.648438 30.769531 C 23.582031 31.058594 23.59375 31.367188 23.648438 31.65625 C 24.199219 34.421875 25.699219 36.9375 27.878906 38.726562 C 30.066406 40.578125 32.945312 41.632812 35.964844 41.6875 L 36.140625 41.6875 C 39.15625 41.6875 42.101562 40.652344 44.449219 38.761719 C 45.007812 38.332031 45.546875 37.832031 46.179688 37.132812 C 46.621094 36.628906 47.132812 36.015625 47.589844 35.277344 C 48.445312 33.925781 49.058594 32.429688 49.414062 30.824219 L 49.46875 30.59375 C 49.527344 30.324219 49.5625 30.042969 49.570312 29.765625 C 49.609375 28.542969 49.171875 27.398438 48.332031 26.511719 Z M 48.332031 26.511719 " fill-opacity="1" fill-rule="nonzero"></path><g clip-path="url(#623e4091a4)"><path fill="#07db3c" d="M 50.519531 8.566406 C 49.410156 7.539062 47.675781 7.605469 46.652344 8.710938 L 33.054688 23.371094 C 29.410156 23.4375 27.5 26.210938 26.945312 27.855469 C 26.835938 28.023438 26.585938 28.304688 25.996094 28.304688 C 25.992188 28.304688 25.984375 28.304688 25.980469 28.304688 C 25.476562 28.320312 25.054688 28.582031 24.851562 29.019531 C 24.648438 29.460938 24.722656 29.984375 25.039062 30.351562 C 26.277344 31.789062 28.417969 31.894531 29.023438 31.894531 C 29.089844 31.894531 29.140625 31.894531 29.164062 31.890625 C 31.386719 31.84375 33.125 31.167969 34.335938 29.886719 C 35.613281 28.535156 35.921875 26.878906 35.996094 26.046875 L 50.519531 12.578125 C 50.566406 12.535156 50.617188 12.484375 50.664062 12.433594 C 51.160156 11.898438 51.421875 11.199219 51.394531 10.46875 C 51.363281 9.738281 51.054688 9.0625 50.519531 8.566406 Z M 29.109375 29.933594 C 28.84375 29.941406 28.300781 29.90625 27.757812 29.757812 C 28.136719 29.507812 28.457031 29.164062 28.695312 28.746094 L 28.777344 28.550781 C 28.820312 28.425781 29.707031 25.683594 32.628906 25.367188 C 32.714844 25.625 32.847656 25.871094 33.042969 26.082031 C 33.285156 26.339844 33.589844 26.519531 33.917969 26.621094 C 33.777344 27.199219 33.492188 27.925781 32.910156 28.539062 C 32.074219 29.425781 30.796875 29.894531 29.109375 29.933594 Z M 49.1875 11.140625 L 35.019531 24.21875 L 34.976562 24.179688 L 48.089844 10.042969 C 48.242188 9.878906 48.449219 9.796875 48.65625 9.796875 C 48.847656 9.796875 49.035156 9.863281 49.1875 10.003906 C 49.339844 10.144531 49.425781 10.335938 49.433594 10.542969 C 49.441406 10.75 49.367188 10.949219 49.1875 11.140625 Z M 49.1875 11.140625 " fill-opacity="1" fill-rule="nonzero"></path></g></svg>