<?xml version="1.0" encoding="utf-8"?>
<!-- Generator: Adobe Illustrator 26.0.1, SVG Export Plug-In . SVG Version: 6.00 Build 0)  -->
<svg version="1.1" id="Layer_1" xmlns="http://www.w3.org/2000/svg" xmlns:xlink="http://www.w3.org/1999/xlink" x="0px" y="0px"
	 viewBox="0 0 2132 580" style="enable-background:new 0 0 2132 580;" xml:space="preserve">
<style type="text/css">
	.st0{fill:url(#SVGID_1_);}
	.st1{fill:url(#SVGID_00000069368435970608202160000014687786157137689764_);}
	.st2{fill:url(#SVGID_00000062169249543559448380000002868458877105102474_);}
	.st3{fill:url(#SVGID_00000090270283496276058180000017841288540636901818_);}
	.st4{fill:url(#SVGID_00000158009792700100842760000011121070751068656825_);}
	.st5{fill:url(#SVGID_00000044135438537414101400000015789025216199540143_);}
	.st6{fill:url(#SVGID_00000045610984109073976380000000932968484380040888_);}
	.st7{fill:url(#SVGID_00000135674513364764665400000002896719251277595317_);}
	.st8{fill:url(#SVGID_00000023281003692856370730000014579773053321586855_);}
	.st9{fill:url(#SVGID_00000049934568302495156120000014982370704135685823_);}
	.st10{fill:url(#SVGID_00000067233868594020771050000000142434675634737558_);}
	.st11{fill:url(#SVGID_00000157274992265366949970000010211496625050896258_);}
	.st12{fill:url(#SVGID_00000181788066068110789530000018182268122271725187_);}
	.st13{fill:url(#SVGID_00000014614081404627982130000010133286047685634990_);}
	.st14{fill:url(#SVGID_00000046300252915433927620000013456070783123240109_);}
	.st15{fill:url(#SVGID_00000157300583181147772800000006728420364962773425_);}
	.st16{fill:url(#SVGID_00000052798557469081155830000006787485660571088782_);}
	.st17{fill:url(#SVGID_00000009560987468312411790000014230015819138930100_);}
	.st18{fill:url(#SVGID_00000174576799358428816610000002915986534206985130_);}
	.st19{fill:url(#SVGID_00000165923211771829573610000008607761139062457230_);}
	.st20{fill:url(#SVGID_00000047061849757954171030000015106083204557028498_);}
	.st21{fill:url(#SVGID_00000124153666450903570840000003932834227467187129_);}
	.st22{fill:url(#SVGID_00000027574944083437057930000015975992306251850164_);}
	.st23{fill:url(#SVGID_00000108284300099851162960000009023273802110196104_);}
	.st24{fill:url(#SVGID_00000183963799733957858970000009479790492030395300_);}
	.st25{fill:url(#SVGID_00000168075652936606711750000007388784514554001798_);}
	.st26{fill:url(#SVGID_00000034804605109354071160000006711025591811029134_);}
	.st27{fill:url(#SVGID_00000136397233389940999460000003562747383233471124_);}
	.st28{fill:url(#SVGID_00000045620407642492702290000014471486144305315478_);}
	.st29{fill:url(#SVGID_00000010288531527536589950000000175433536197792925_);}
	.st30{fill:url(#SVGID_00000041275696767360863800000007039645314145258431_);}
	.st31{fill:url(#SVGID_00000097499134613881333880000016349797559621414804_);}
	.st32{fill:url(#SVGID_00000075860060474805595920000001764171964484996535_);}
	.st33{fill:url(#SVGID_00000014631184207314541810000001132097299222240657_);}
	.st34{fill:url(#SVGID_00000078030608767956598420000003417799120838015394_);}
	.st35{fill:url(#SVGID_00000070099987740176388170000010386211209575826599_);}
	.st36{fill:url(#SVGID_00000114074764116902060500000003469476815825500842_);}
	.st37{fill:url(#SVGID_00000039119879816931821830000013882807343840213680_);}
	.st38{fill:url(#SVGID_00000001654224154769421180000001647610038279254199_);}
	.st39{fill:url(#SVGID_00000056393968280964450510000012291348002620160674_);}
	.st40{fill:url(#SVGID_00000003088783462476518310000013819495747655368068_);}
	.st41{fill:url(#SVGID_00000132074196309225524350000009093807554325638286_);}
	.st42{fill:url(#SVGID_00000147906014162855040170000013451273037660469143_);}
	.st43{fill:url(#SVGID_00000149340962426401213740000002542160946165773187_);}
	.st44{fill:url(#SVGID_00000160898175964304368230000007089609553940276391_);}
	.st45{fill:url(#SVGID_00000088839542233635483070000016187353328508131725_);}
	.st46{fill:url(#SVGID_00000147913920283589525870000002209186846806399413_);}
	.st47{fill:url(#SVGID_00000091735795731404923770000005486418200036103831_);}
	.st48{fill:url(#SVGID_00000079473237281642571700000011735646711347013549_);}
	.st49{fill:url(#SVGID_00000157305791707645538300000001318636395352914615_);}
	.st50{fill:url(#SVGID_00000134230995410078530390000011087172603883241659_);}
	.st51{fill:url(#SVGID_00000146488895375366900440000006028144036453097403_);}
	.st52{fill:url(#SVGID_00000159469236690311208300000015626074894126119816_);}
	.st53{fill:url(#SVGID_00000163066361160117065480000016809566404948739220_);}
	.st54{fill:url(#SVGID_00000083072368637157069530000017278101346244930194_);}
	.st55{fill:url(#SVGID_00000123411594554396709810000005616828475426871231_);}
	.st56{fill:url(#SVGID_00000055704350714332561940000017470380165440499391_);}
	.st57{fill:url(#SVGID_00000098186543457301415540000001550798051871474603_);}
	.st58{fill:url(#SVGID_00000155866347710361555640000005152955669399303297_);}
	.st59{fill:url(#SVGID_00000090973897038518221970000018346049864984125071_);}
	.st60{fill:url(#SVGID_00000086657977366864962000000017909672028421299883_);}
	.st61{fill:url(#SVGID_00000057144421869826122020000001678412564542586785_);}
	.st62{fill:url(#SVGID_00000176030458434209816050000001315689982053060239_);}
	.st63{fill:url(#SVGID_00000059278590464358356850000016890420856035972282_);}
	.st64{fill:url(#SVGID_00000013895434601950689280000010915939372523179696_);}
	.st65{fill:url(#SVGID_00000044176105239915895600000003527967461630277507_);}
	.st66{fill:url(#SVGID_00000017510627012560181440000010553884818521553301_);}
	.st67{fill:url(#SVGID_00000118377195051951886610000001342416828758919855_);}
	.st68{fill:url(#SVGID_00000178193950638407659720000010015826061740316317_);}
	.st69{fill:url(#SVGID_00000108283233324973558180000011304722023022994087_);}
	.st70{fill:url(#SVGID_00000101816382398345168050000011386590808607635645_);}
	.st71{fill:url(#SVGID_00000146460290573756531540000012226719441296563618_);}
	.st72{fill:url(#SVGID_00000161610590386980150000000009661392723394655159_);}
	.st73{fill:url(#SVGID_00000047766299412957328820000003602940628659764409_);}
	.st74{fill:url(#SVGID_00000170956887694079015080000002809289248892079807_);}
	.st75{fill:url(#SVGID_00000135653572496909705950000010347504046101582526_);}
	.st76{fill:url(#SVGID_00000005945936223112915050000004663840951953573521_);}
	.st77{fill:url(#SVGID_00000078027931509064919730000012257780128386516898_);}
	.st78{fill:url(#SVGID_00000072275487211465990900000010655047680124082345_);}
	.st79{fill:url(#SVGID_00000054952959918536054530000000136459902604781952_);}
	.st80{fill:url(#SVGID_00000103231988830796584920000004320295630539453872_);}
	.st81{fill:url(#SVGID_00000084502261780231567510000016156440763772799409_);}
	.st82{fill:url(#SVGID_00000069385200588817423550000017427872209397223598_);}
	.st83{fill:url(#SVGID_00000035489706526417785990000015348228995870157981_);}
	.st84{fill:url(#SVGID_00000149365078992428526130000011613126304671900311_);}
	.st85{fill:url(#SVGID_00000124157755046944663270000017641636202762777500_);}
	.st86{fill:url(#SVGID_00000133520718579603536980000011542076768092970413_);}
	.st87{fill:url(#SVGID_00000131343495790868662010000003527344954010477740_);}
	.st88{fill:url(#SVGID_00000030444524400361188580000015075507018557009052_);}
	.st89{fill:url(#SVGID_00000170268742509576442220000017669375318063634858_);}
	.st90{fill:url(#SVGID_00000025405281418686028080000007584296958367896486_);}
	.st91{fill:url(#SVGID_00000026859056411350835570000005968845518618184383_);}
	.st92{fill:url(#SVGID_00000165196402357437084630000002392688832599092925_);}
	.st93{fill:url(#SVGID_00000112600520948859602060000016307019154814091652_);}
	.st94{fill:url(#SVGID_00000080172775335809394930000000196460814929277338_);}
	.st95{fill:url(#SVGID_00000139260846565335098200000009198567484140178057_);}
	.st96{fill:url(#SVGID_00000155114917898158859930000002209223669201784963_);}
	.st97{fill:url(#SVGID_00000134934671486657841290000016940758848482598300_);}
	.st98{fill:url(#SVGID_00000103964866825587949040000016346277524365697976_);}
</style>
<g>
	<linearGradient id="SVGID_1_" gradientUnits="userSpaceOnUse" x1="898.4444" y1="539.6982" x2="898.4444" y2="173.3705">
		<stop  offset="0" style="stop-color:#1E3498"/>
		<stop  offset="0.3893" style="stop-color:#224AB0"/>
		<stop  offset="1" style="stop-color:#2A72DD"/>
	</linearGradient>
	<path class="st0" d="M1007.89,373.45c-10.75-11.85-23.44-20.5-38.07-25.93c-14.65-5.45-33.13-10.54-55.45-15.29
		c-19.81-4.18-34.16-8.21-43.09-12.12c-8.93-3.91-13.39-9.78-13.39-17.59c0-7.79,3.76-14.15,11.3-19.02
		c7.54-4.88,19.51-7.33,35.98-7.33c24.39,0,49.51,6.52,75.38,19.55c3.15,1.6,6.99,0.17,8.34-3.1l20.63-49.68
		c1.35-3.29,0.02-7.07-3.12-8.74c-12.92-6.86-27.55-12.18-43.9-15.98c-18.69-4.31-37.65-6.48-56.9-6.48
		c-28.19,0-51.96,4.18-71.35,12.56c-19.38,8.36-33.95,19.74-43.71,34.1c-9.78,14.36-14.65,30.47-14.65,48.33
		c0,20.35,5.3,36.53,15.9,48.52c10.6,11.99,23.29,20.71,38.07,26.16c14.78,5.43,33.19,10.54,55.24,15.27
		c20.08,4.48,34.65,8.72,43.73,12.75c9.06,4.05,13.6,10.26,13.6,18.62c0,15.9-15.9,23.86-47.7,23.86c-16.74,0-33.76-2.66-51.06-7.96
		c-14.57-4.46-27.64-10.11-39.23-16.93c-3.44-2.03-7.85-0.63-9.48,3l-21.37,48.01c-1.58,3.57-0.36,7.79,2.96,9.82
		c13.07,8.04,29.31,14.61,48.71,19.7c22.32,5.87,45.33,8.78,69.04,8.78c27.89,0,51.6-4.24,71.13-12.75
		c19.51-8.51,34.16-19.87,43.92-34.1c9.78-14.23,14.65-30.13,14.65-47.7C1024,401.43,1018.61,385.32,1007.89,373.45z"/>
	
		<linearGradient id="SVGID_00000062155794978761263250000014328559275910331275_" gradientUnits="userSpaceOnUse" x1="1146.4811" y1="539.6982" x2="1146.4811" y2="173.3705">
		<stop  offset="0" style="stop-color:#1E3498"/>
		<stop  offset="0.3893" style="stop-color:#224AB0"/>
		<stop  offset="1" style="stop-color:#2A72DD"/>
	</linearGradient>
	<path style="fill:url(#SVGID_00000062155794978761263250000014328559275910331275_);" d="M1262.59,268.43
		c-10.6-16.3-25.65-28.86-45.19-37.65c-19.53-8.78-42.55-13.18-69.04-13.18h-127.02c-2.94,0-5.47,1.86-6.42,4.48
		c8.76,5.66,12.31,16.7,8.23,26.52l-8.68,20.92v89.44c1.5,1.48,2.96,3,4.37,4.56c13.22,14.61,19.93,34.23,19.93,58.25
		c0,20.52-5.81,39.4-17.23,56.06c-2.15,3.15-4.52,6.17-7.07,9.08V504c0,3.57,2.91,6.48,6.5,6.48h68.52c4.33,0,7.83-3.5,7.83-7.81
		v-65.92c0-1.56,1.27-2.83,2.83-2.83h48.2c26.5,0,49.51-4.39,69.04-13.2c19.53-8.78,34.59-21.26,45.19-37.44
		c10.6-16.17,15.9-35.28,15.9-57.33C1278.49,303.94,1273.19,284.75,1262.59,268.43z M1181.85,357.55
		c-8.66,7.39-21.49,11.09-38.49,11.09h-40.01c-3.34,0-6.02-2.68-6.02-6v-73.5c0-3.46,2.81-6.27,6.27-6.27h39.76
		c17,0,29.83,3.76,38.49,11.3c8.64,7.54,12.96,18.14,12.96,31.8C1194.81,339.65,1190.48,350.16,1181.85,357.55z"/>
	
		<linearGradient id="SVGID_00000080189896772723730400000000319274509022697136_" gradientUnits="userSpaceOnUse" x1="1642.6796" y1="539.6982" x2="1642.6796" y2="173.3705">
		<stop  offset="0" style="stop-color:#1E3498"/>
		<stop  offset="0.3893" style="stop-color:#224AB0"/>
		<stop  offset="1" style="stop-color:#2A72DD"/>
	</linearGradient>
	<path style="fill:url(#SVGID_00000080189896772723730400000000319274509022697136_);" d="M1630.8,432.66h-33.2
		c-3.87,0-7.01,3.14-7.01,7.01v64.38c0,3.55-2.88,6.44-6.44,6.44h-76.41V223.5c0-3.26,2.64-5.9,5.9-5.9h127.99
		c26.5,0,49.51,4.39,69.04,13.18c19.52,8.79,34.58,21.34,45.19,37.66c10.6,16.32,15.9,35.5,15.9,57.53
		c0,21.2-4.96,39.68-14.85,55.44c-9.17,14.59-21.98,26.25-38.44,34.99c-2.13,1.13-2.76,3.89-1.39,5.88l60.55,88.21H1696
		c-4.43,0-8.58-2.19-11.08-5.85l-46.34-67.87C1636.83,434.2,1633.91,432.66,1630.8,432.66z M1675.11,294.17
		c-8.65-7.53-21.48-11.3-38.49-11.3h-42.68c-1.85,0-3.34,1.5-3.34,3.34v75.82c0,3.65,2.96,6.61,6.61,6.61h39.41
		c17.01,0,29.84-3.69,38.49-11.09c8.64-7.39,12.97-17.92,12.97-31.59C1688.08,312.31,1683.75,301.7,1675.11,294.17z"/>
	
		<linearGradient id="SVGID_00000114759351207758463280000015025717028901882752_" gradientUnits="userSpaceOnUse" x1="97.192" y1="539.6982" x2="97.192" y2="173.3705">
		<stop  offset="0" style="stop-color:#1E3498"/>
		<stop  offset="0.3893" style="stop-color:#224AB0"/>
		<stop  offset="1" style="stop-color:#2A72DD"/>
	</linearGradient>
	<path style="fill:url(#SVGID_00000114759351207758463280000015025717028901882752_);" d="M110.73,203.2
		c-10.43,23.31-21.77,48.27-33.74,74.53V161.47c2.3,4.73,5.36,9.12,9.18,12.94c8.38,8.38,19.38,13.24,31.23,13.87L110.73,203.2z"/>
	
		<linearGradient id="SVGID_00000037660673439435879270000016531856893038904708_" gradientUnits="userSpaceOnUse" x1="141.0151" y1="539.6982" x2="141.0151" y2="173.3705">
		<stop  offset="0" style="stop-color:#1E3498"/>
		<stop  offset="0.3893" style="stop-color:#224AB0"/>
		<stop  offset="1" style="stop-color:#2A72DD"/>
	</linearGradient>
	<path style="fill:url(#SVGID_00000037660673439435879270000016531856893038904708_);" d="M163.24,161.56v168.3l-13.22-1.01
		c-10.62-0.82-20.44-1.56-31.21-2.41c0-40.33,0-121.51,0-121.51l-0.02-16.6c0.44,0.04,0.87,0.04,1.31,0.04h0.15
		c12.96-0.04,25.06-5.07,34.06-14.15C158.02,170.49,161,166.18,163.24,161.56z"/>
	
		<linearGradient id="SVGID_00000088838469472291402790000003305187221983537586_" gradientUnits="userSpaceOnUse" x1="128.6526" y1="539.6982" x2="128.6526" y2="173.3705">
		<stop  offset="0" style="stop-color:#1E3498"/>
		<stop  offset="0.3893" style="stop-color:#224AB0"/>
		<stop  offset="1" style="stop-color:#2A72DD"/>
	</linearGradient>
	<path style="fill:url(#SVGID_00000088838469472291402790000003305187221983537586_);" d="M94.07,513.03
		c24.28-52.07,47.8-102.79,69.17-150.06v80.89C163.24,482.06,132.27,513.03,94.07,513.03L94.07,513.03z"/>
	
		<linearGradient id="SVGID_00000017487047796554626130000002943286352169795258_" gradientUnits="userSpaceOnUse" x1="120.1167" y1="539.6982" x2="120.1167" y2="173.3705">
		<stop  offset="0" style="stop-color:#1E3498"/>
		<stop  offset="0.3893" style="stop-color:#224AB0"/>
		<stop  offset="1" style="stop-color:#2A72DD"/>
	</linearGradient>
	<path style="fill:url(#SVGID_00000017487047796554626130000002943286352169795258_);" d="M120.22,177.82
		c20.89-0.07,37.41-16.66,37.28-37.45c-0.13-20.78-16.95-37.58-37.47-37.45c-20.69,0.13-37.27,16.86-37.29,37.61
		C82.73,161.29,99.41,177.89,120.22,177.82z"/>
	
		<linearGradient id="SVGID_00000146460289026860110500000008979909037928249272_" gradientUnits="userSpaceOnUse" x1="28" y1="362.3774" x2="171.3037" y2="362.3774">
		<stop  offset="0" style="stop-color:#FFCA05"/>
		<stop  offset="1" style="stop-color:#FF7F00"/>
	</linearGradient>
	<path style="fill:url(#SVGID_00000146460289026860110500000008979909037928249272_);" d="M171.3,334.7
		c-2.64,5.91-5.32,11.93-8.07,17.99c-23.8,52.87-50.76,110.85-73.82,160.34c-1.06,2.28-2.11,4.56-3.17,6.8v-120.9
		c-3.23-0.17-6.31-0.32-9.27-0.49c-3.67-0.19-7.16-0.36-10.56-0.53c-5.28-0.27-10.37-0.55-15.54-0.8
		c-7.16-0.36-14.53-0.74-22.89-1.16c3.84-8.59,7.79-17.38,11.82-26.29c8.66-19.15,17.63-38.89,26.6-58.61
		c3.53-7.73,7.05-15.46,10.56-23.14c13.18-28.91,26.08-57.24,37.6-82.98c0,0,0,86.72,0,125.44c16.83,1.29,30.95,2.36,48.65,3.72
		C165.84,334.27,168.52,334.49,171.3,334.7z"/>
	
		<linearGradient id="SVGID_00000106851244559192912690000016675815130093425029_" gradientUnits="userSpaceOnUse" x1="362.669" y1="539.6982" x2="362.669" y2="173.3705">
		<stop  offset="0" style="stop-color:#1E3498"/>
		<stop  offset="0.3893" style="stop-color:#224AB0"/>
		<stop  offset="1" style="stop-color:#2A72DD"/>
	</linearGradient>
	<path style="fill:url(#SVGID_00000106851244559192912690000016675815130093425029_);" d="M483.18,385.67V211.94l-50.36,71.06
		c-4.57,6.45-4.81,15.02-0.6,21.71l37.41,59.45L301.37,195.9c-13.73-13.73-35.98-13.73-49.71,0c-13.73,13.73-13.73,35.98,0,49.71
		l172.31,172.31c6.86,6.86,15.86,10.29,24.85,10.29c9,0,17.99-3.43,24.85-10.29C482.43,409.16,485.59,396.94,483.18,385.67z"/>
	
		<linearGradient id="SVGID_00000128481140349510792570000014446314820665872782_" gradientUnits="userSpaceOnUse" x1="288.7509" y1="539.6982" x2="288.7509" y2="173.3705">
		<stop  offset="0" style="stop-color:#1E3498"/>
		<stop  offset="0.3893" style="stop-color:#224AB0"/>
		<stop  offset="1" style="stop-color:#2A72DD"/>
	</linearGradient>
	<path style="fill:url(#SVGID_00000128481140349510792570000014446314820665872782_);" d="M399.75,466.82
		c-6.86,6.86-15.86,10.28-24.85,10.28c-8.99,0-17.99-3.42-24.85-10.28L181.79,298.56l36.15,57.43c4.98,7.92,4.69,18.05-0.72,25.68
		l-48.99,69.11v-89.5c1.04-2.28,2.07-4.56,3.08-6.84c2.45-5.43,4.86-10.83,7.24-16.15l3.27-7.33l-13.6-1.03v-52.87
		c-2.41-11.28,0.76-23.5,9.52-32.24c13.72-13.72,35.98-13.72,49.7,0L399.75,417.1C413.48,430.84,413.48,453.1,399.75,466.82z"/>
	<g>
		
			<linearGradient id="SVGID_00000144320893914129209490000006053437752523079834_" gradientUnits="userSpaceOnUse" x1="1290.2034" y1="539.6982" x2="1290.2034" y2="173.3705">
			<stop  offset="0" style="stop-color:#1E3498"/>
			<stop  offset="0.3893" style="stop-color:#224AB0"/>
			<stop  offset="1" style="stop-color:#2A72DD"/>
		</linearGradient>
		<path style="fill:url(#SVGID_00000144320893914129209490000006053437752523079834_);" d="M1346.18,397.59
			c-3.42-0.18-6.66-0.33-9.82-0.49c-4.91-0.26-9.64-0.51-14.45-0.75c-6.66-0.33-13.51-0.69-21.29-1.08
			c3.57-7.99,7.25-16.16,11-24.45c8.05-17.81,16.4-36.17,24.74-54.52c3.28-7.19,6.56-14.38,9.82-21.52
			c12.25-26.88,24.25-53.24,34.98-77.18h-49.52c-3.27,0-6.23,1.93-7.55,4.92l-124.48,281.98c-1.24,2.82,0.82,5.98,3.9,5.98h40.37
			h37.61h73.31V398.04C1351.8,397.88,1348.93,397.74,1346.18,397.59z"/>
		
			<linearGradient id="SVGID_00000156589420556655493170000003331837201818803646_" gradientUnits="userSpaceOnUse" x1="1446.1821" y1="539.6982" x2="1446.1821" y2="173.3705">
			<stop  offset="0" style="stop-color:#1E3498"/>
			<stop  offset="0.3893" style="stop-color:#224AB0"/>
			<stop  offset="1" style="stop-color:#2A72DD"/>
		</linearGradient>
		<path style="fill:url(#SVGID_00000156589420556655493170000003331837201818803646_);" d="M1402.99,217.6h-21.83v116.67
			c15.65,1.2,28.79,2.2,45.25,3.46c2.42,0.18,4.91,0.37,7.5,0.57c-2.45,5.5-4.95,11.1-7.5,16.73
			c-22.13,49.17-47.21,103.1-68.65,149.13c-0.98,2.12-1.96,4.24-2.95,6.32h96.56h32.96h53.23l-127.74-288.44
			C1408.62,219.34,1405.95,217.6,1402.99,217.6z"/>
	</g>
	<g>
		
			<linearGradient id="SVGID_00000097471845108255104560000000170471698545709697_" gradientUnits="userSpaceOnUse" x1="1893.2877" y1="539.6982" x2="1893.2877" y2="173.3705">
			<stop  offset="0" style="stop-color:#FFCA05"/>
			<stop  offset="1" style="stop-color:#FF7F00"/>
		</linearGradient>
		<path style="fill:url(#SVGID_00000097471845108255104560000000170471698545709697_);" d="M1901.31,123.28
			c-0.67-10.47-2.63-20.88-1.86-31.41c0.82-11.27,4.32-21.47,12.83-29.4c3.19-2.97,5.48-3.81,6.02,2.11
			c1.67,18.24,7.06,35.45,14.56,52.12c5.15,11.45,7.62,23.54,6.89,36.22c-0.31,5.35-1.43,10.41-3.78,15.16
			c-5.56,11.23-9.79,13.22-22.21,10.96c-15.75-2.87-31.64-4.71-47.62-5.33c-6.84-0.27-10.93-3.32-14.21-8.95
			c-11.91-20.41-2.61-47.4,19.43-56.13c4.6-1.82,7.07-1.92,6.37,4.33c-0.64,5.67-0.36,11.45,0.94,17.1
			c1.96,8.53,7.42,13.4,14.02,12.51c6.02-0.82,9.22-6.12,9-14.99C1901.64,126.13,1901.43,124.71,1901.31,123.28z"/>
		<g>
			
				<linearGradient id="SVGID_00000011743747005535442010000003414672374766975650_" gradientUnits="userSpaceOnUse" x1="1802.8478" y1="539.6982" x2="1802.8478" y2="173.3705">
				<stop  offset="0" style="stop-color:#1E3498"/>
				<stop  offset="0.3893" style="stop-color:#224AB0"/>
				<stop  offset="1" style="stop-color:#2A72DD"/>
			</linearGradient>
			<path style="fill:url(#SVGID_00000011743747005535442010000003414672374766975650_);" d="M1770.56,353.34
				c9.28-4.12,17.62-9.48,23.89-17.69c4.92-6.45,9.96-12.81,14.85-19.29c6.91-9.15,15.32-16.36,26.28-20.14
				c3.51-1.21,4.64-3.12,4.56-6.8c-0.24-10.98,0.07-54.92,0.41-65.9c0.15-4.8-1.45-6.01-6.09-5.96c-20.3,0.23-40.61,0.28-60.9-0.04
				c-5.25-0.08-6.21,1.7-6.23,6.49c-0.05,15.74-0.71,31.48-0.97,47.22c-0.44,26.25-0.67,52.51-1.22,78.76
				C1765.03,355.08,1767.1,354.88,1770.56,353.34z"/>
			
				<linearGradient id="SVGID_00000051383694311301269260000011625933887384676758_" gradientUnits="userSpaceOnUse" x1="1887.1445" y1="539.6982" x2="1887.1445" y2="173.3705">
				<stop  offset="0" style="stop-color:#1E3498"/>
				<stop  offset="0.3893" style="stop-color:#224AB0"/>
				<stop  offset="1" style="stop-color:#2A72DD"/>
			</linearGradient>
			<path style="fill:url(#SVGID_00000051383694311301269260000011625933887384676758_);" d="M1850.54,207.53
				c3.54-0.33,7.14-0.07,10.72-0.07c17.94,0.05,35.62,2.23,52.97,6.91c10.99,2.96,14.73,0.97,18.71-9.8
				c2.8-7.56,2.09-9.87-5.38-12.33c-26.31-8.66-53.26-12.36-80.95-9.38c-1.64,0.18-3.79-0.21-4.65,1.32
				c-3.45,6.08-2.04,12.23-0.17,18.53C1843.24,207.62,1846.37,207.92,1850.54,207.53z"/>
			
				<linearGradient id="SVGID_00000150099810159097017450000000213261256422438556_" gradientUnits="userSpaceOnUse" x1="1894.8579" y1="539.6982" x2="1894.8579" y2="173.3705">
				<stop  offset="0" style="stop-color:#1E3498"/>
				<stop  offset="0.3893" style="stop-color:#224AB0"/>
				<stop  offset="1" style="stop-color:#2A72DD"/>
			</linearGradient>
			<path style="fill:url(#SVGID_00000150099810159097017450000000213261256422438556_);" d="M1904.27,222.92
				c-8.91,18.24-18.08,36.36-27.06,54.57c11.37-17.25,22.75-34.48,34.11-51.73c1.07-1.62,2.32-3.14-0.67-4.38
				C1907.97,220.26,1905.93,219.51,1904.27,222.92z"/>
			
				<linearGradient id="SVGID_00000052094046386811007310000015881138383210690223_" gradientUnits="userSpaceOnUse" x1="1893.1891" y1="539.6982" x2="1893.1891" y2="173.3705">
				<stop  offset="0" style="stop-color:#1E3498"/>
				<stop  offset="0.3893" style="stop-color:#224AB0"/>
				<stop  offset="1" style="stop-color:#2A72DD"/>
			</linearGradient>
			<path style="fill:url(#SVGID_00000052094046386811007310000015881138383210690223_);" d="M2026.12,504.62
				c-0.87-1.16-1.69-2.24-2.51-3.32c-36.24-47.15-72.46-94.34-108.84-141.4c-2.81-3.64-3.14-5.8,0.03-9.57
				c25.98-30.91,51.7-62.03,77.48-93.1c8.52-10.26,16.99-20.56,26.07-31.54c1.29-1.56,0.17-3.93-1.86-3.93
				c-23.83,0-46.81,0.02-69.66-0.03h-2.77c-4.23-0.01-8.47-0.03-12.68-0.04c-0.27,0-0.52,0.01-0.76,0.04h-0.91
				c-1.41,0-2.75,0.67-3.59,1.8l-5.46,7.32l-25.45,34.13l-7.53,10.08c-1.46,1.96-3.26,3.66-5.38,4.88c-1.41,0.81-2.91,1.51-4.54,2.1
				c-7.22,2.65-14.25,5.81-21.36,8.74c9.6-0.4,18.8-1.85,28.04-2.94c7.3-0.86,12.57,2.63,13.64,8.52
				c1.23,6.71-2.24,10.88-10.17,12.87c-5.8,1.46-11.98,1.71-18.7,5.27c8.41,3.04,14.26-1.46,20.66,0.67c3.3,1.1,5.7,3.77,6.59,7.13
				c1.41,5.39-1.84,9.63-8.61,11.69c-5.04,1.54-10.12,2.94-15.8,4.58c1.33,1.05,1.89,1.87,2.42,1.85c3.56-0.17,7.12-0.62,10.67-0.79
				c7.55-0.37,12.15,5.11,9.74,11.84c-1.65,4.61-5.19,7.1-10.04,8.16c-3.21,0.72-6.93,0.42-11.08,4.12c5.37,0,9.04-0.07,12.71,0.01
				c1.99,0.06,4.62-1.18,5.62,1.56c0.98,2.65-0.85,4.39-2.8,5.98c-12.17,10-25.67,17.55-41.11,20.83
				c-7.43,1.58-15.08,3.49-22.68,1.55c-1.39-0.36-2.14-1.85-1.72-3.23c0.59-1.87,0.77-3.97-0.55-5.31c0,0-15.96,8.26-31.91,28.06
				c-15.15,18.82-30.31,48.04-31.78,90.48c-0.13,3.7,2.87,6.77,6.58,6.77h74.04c4.26,0,7.72-3.46,7.72-7.72v-62.86
				c0-4.68,1.68-9.18,4.75-12.71c3.7-4.26,8.74-9.96,11.87-13.44c1.38-1.54,3.82-1.39,5.04,0.27c22.17,30.5,43.95,60.29,65.44,90.28
				c3.27,4.56,6.69,6.26,12.27,6.18c25.34-0.32,50.68-0.14,76.02-0.14C2026.2,510.34,2027.88,506.98,2026.12,504.62z"/>
		</g>
	</g>
	
		<linearGradient id="SVGID_00000075860785707356909080000014840605036712537217_" gradientUnits="userSpaceOnUse" x1="635.4272" y1="539.6982" x2="635.4272" y2="173.3705">
		<stop  offset="0" style="stop-color:#1E3498"/>
		<stop  offset="0.3893" style="stop-color:#224AB0"/>
		<stop  offset="1" style="stop-color:#2A72DD"/>
	</linearGradient>
	<path style="fill:url(#SVGID_00000075860785707356909080000014840605036712537217_);" d="M779.22,374.93
		c-5.45,77.74-70.44,139.31-149.53,139.31c-48.02,0-90.85-22.68-118.3-57.9c-13.7-17.57-19.66-39.64-18.98-61.9
		c0.05-1.59,0.01-3.19-0.12-4.79c-0.32-4.05-0.65-8.1-0.65-12.16l0-49.79c0-18.24,5.69-36.05,16.35-50.84
		c24.36-33.8,62.45-57.09,106.03-61.63v75.19c-36.03,7.63-62.65,40.97-59.67,79.84c2.83,37.01,32.9,66.84,69.93,69.44
		c40.43,2.83,74.81-26.36,80.2-64.76H779.22z"/>
	
		<linearGradient id="SVGID_00000129891376604985849830000011035959937895381439_" gradientUnits="userSpaceOnUse" x1="704.6345" y1="539.6982" x2="704.6345" y2="173.3705">
		<stop  offset="0" style="stop-color:#FFCA05"/>
		<stop  offset="1" style="stop-color:#FF7F00"/>
	</linearGradient>
	<path style="fill:url(#SVGID_00000129891376604985849830000011035959937895381439_);" d="M778.3,250.09
		c0.42-0.62,0.86-1.22,1.3-1.83v-33.85H629.67v74.37H705v70.49h71.11c-9.96-13.93-15.01-31.57-15.01-52.55
		C761.1,285.93,766.89,266.88,778.3,250.09z"/>
	<g>
		<g>
			<path d="M2046.97,194.95h-9.22c-1.33,0-2.28-0.3-2.85-0.9c-0.57-0.6-0.85-1.55-0.85-2.85v-22.69c0-1.33,0.29-2.29,0.87-2.87
				c0.58-0.58,1.53-0.87,2.83-0.87h9.78c1.44,0,2.69,0.09,3.75,0.27c1.06,0.18,2,0.52,2.84,1.03c0.71,0.43,1.34,0.96,1.89,1.62
				c0.55,0.65,0.97,1.37,1.26,2.16c0.29,0.79,0.43,1.62,0.43,2.5c0,3.02-1.51,5.23-4.53,6.63c3.97,1.26,5.95,3.72,5.95,7.37
				c0,1.69-0.43,3.21-1.3,4.56c-0.86,1.35-2.03,2.35-3.5,3c-0.92,0.38-1.98,0.66-3.17,0.81
				C2049.95,194.87,2048.56,194.95,2046.97,194.95z M2040.15,169.36v7.8h5.6c1.52,0,2.7-0.14,3.53-0.43
				c0.83-0.29,1.47-0.84,1.9-1.65c0.34-0.58,0.51-1.22,0.51-1.94c0-1.52-0.54-2.54-1.63-3.04c-1.08-0.5-2.74-0.75-4.96-0.75H2040.15
				z M2046.51,181.55h-6.36v8.81h6.57c4.13,0,6.2-1.49,6.2-4.47c0-1.52-0.54-2.63-1.61-3.31
				C2050.24,181.89,2048.64,181.55,2046.51,181.55z"/>
		</g>
		<g>
			<path d="M2068.19,164.77h7.97c2.07,0,3.85,0.19,5.33,0.58c1.48,0.38,2.83,1.1,4.04,2.16c3.14,2.69,4.71,6.78,4.71,12.27
				c0,1.81-0.16,3.47-0.47,4.96c-0.32,1.5-0.8,2.84-1.46,4.05c-0.66,1.2-1.5,2.27-2.53,3.22c-0.81,0.73-1.7,1.31-2.66,1.75
				c-0.96,0.44-1.99,0.75-3.1,0.93c-1.11,0.18-2.35,0.27-3.74,0.27h-7.97c-1.11,0-1.95-0.17-2.51-0.5c-0.56-0.34-0.93-0.81-1.1-1.42
				c-0.17-0.61-0.26-1.4-0.26-2.38v-22.13c0-1.32,0.29-2.27,0.89-2.86C2065.92,165.07,2066.87,164.77,2068.19,164.77z
				 M2070.56,169.61v20.48h4.63c1.02,0,1.81-0.03,2.39-0.08c0.58-0.05,1.17-0.19,1.79-0.41c0.62-0.22,1.15-0.53,1.61-0.93
				c2.04-1.73,3.07-4.71,3.07-8.93c0-2.98-0.45-5.21-1.35-6.69c-0.9-1.48-2.01-2.43-3.32-2.83c-1.32-0.4-2.91-0.61-4.78-0.61
				H2070.56z"/>
		</g>
	</g>
	<g>
		<path d="M2062.14,221.72c-23.08,0-41.86-18.78-41.86-41.86s18.78-41.86,41.86-41.86s41.86,18.78,41.86,41.86
			S2085.22,221.72,2062.14,221.72z M2062.14,142.87c-20.4,0-36.99,16.6-36.99,36.99s16.6,36.99,36.99,36.99s36.99-16.6,36.99-36.99
			S2082.54,142.87,2062.14,142.87z"/>
	</g>
</g>
</svg>
