<svg xmlns="http://www.w3.org/2000/svg" xmlns:xlink="http://www.w3.org/1999/xlink" width="100" viewBox="0 0 75 74.999997" height="100" preserveAspectRatio="xMidYMid meet"><defs><clipPath id="dae05b0930"><path d="M 15 7.5 L 46 7.5 L 46 67.5 L 15 67.5 Z M 15 7.5 " clip-rule="nonzero"></path></clipPath><clipPath id="b512cbf136"><path d="M 9.101562 31 L 13 31 L 13 34 L 9.101562 34 Z M 9.101562 31 " clip-rule="nonzero"></path></clipPath><clipPath id="1e07f35a64"><path d="M 9.101562 42 L 14 42 L 14 45 L 9.101562 45 Z M 9.101562 42 " clip-rule="nonzero"></path></clipPath></defs><path fill="#07db3c" d="M 62.902344 37.84375 C 62.777344 37.84375 62.65625 37.789062 62.570312 37.683594 C 62.417969 37.5 62.445312 37.230469 62.628906 37.078125 L 65.105469 35.039062 C 65.289062 34.886719 65.5625 34.914062 65.714844 35.097656 C 65.863281 35.28125 65.835938 35.554688 65.652344 35.707031 L 63.175781 37.742188 C 63.097656 37.808594 63 37.84375 62.902344 37.84375 Z M 62.902344 37.84375 " fill-opacity="1" fill-rule="nonzero"></path><g clip-path="url(#dae05b0930)"><path fill="#07db3c" d="M 45.253906 53.160156 C 45.015625 53.160156 44.820312 53.355469 44.820312 53.589844 L 44.820312 61.566406 C 44.820312 64.363281 42.546875 66.636719 39.75 66.636719 L 21.214844 66.636719 C 18.417969 66.636719 16.144531 64.363281 16.144531 61.566406 L 16.144531 13.433594 C 16.144531 10.636719 18.417969 8.363281 21.214844 8.363281 L 23.394531 8.363281 L 24.316406 11.128906 C 24.554688 11.835938 25.210938 12.308594 25.953125 12.308594 L 35.007812 12.308594 C 35.75 12.308594 36.410156 11.835938 36.644531 11.128906 L 37.566406 8.363281 L 39.746094 8.363281 C 42.542969 8.363281 44.820312 10.636719 44.820312 13.433594 L 44.820312 33.964844 C 44.820312 34.203125 45.011719 34.398438 45.25 34.398438 C 45.488281 34.398438 45.679688 34.203125 45.679688 33.964844 L 45.679688 13.433594 C 45.679688 10.160156 43.019531 7.5 39.746094 7.5 L 21.214844 7.5 C 17.941406 7.5 15.28125 10.164062 15.28125 13.433594 L 15.28125 61.566406 C 15.28125 64.835938 17.945312 67.5 21.214844 67.5 L 39.75 67.5 C 43.023438 67.5 45.683594 64.835938 45.683594 61.566406 L 45.683594 53.589844 C 45.683594 53.351562 45.492188 53.160156 45.253906 53.160156 Z M 45.253906 53.160156 " fill-opacity="1" fill-rule="nonzero"></path></g><path fill="#07db3c" d="M 27.921875 28.023438 C 28.078125 28.023438 28.242188 27.988281 28.390625 27.914062 L 37.464844 23.53125 C 37.839844 23.351562 38.074219 22.976562 38.074219 22.558594 C 38.074219 22.144531 37.839844 21.773438 37.464844 21.589844 L 28.390625 17.203125 C 28.054688 17.042969 27.664062 17.0625 27.347656 17.261719 C 27.03125 17.460938 26.84375 17.800781 26.84375 18.175781 L 26.84375 26.945312 C 26.84375 27.316406 27.03125 27.660156 27.347656 27.855469 C 27.523438 27.96875 27.722656 28.023438 27.921875 28.023438 Z M 27.707031 18.175781 C 27.707031 18.070312 27.777344 18.011719 27.808594 17.996094 C 27.832031 17.980469 27.871094 17.960938 27.921875 17.960938 C 27.949219 17.960938 27.980469 17.964844 28.015625 17.980469 L 37.089844 22.367188 C 37.199219 22.417969 37.210938 22.519531 37.210938 22.558594 C 37.210938 22.601562 37.199219 22.699219 37.089844 22.753906 L 28.015625 27.136719 C 27.917969 27.183594 27.835938 27.144531 27.808594 27.128906 C 27.769531 27.105469 27.707031 27.046875 27.707031 26.945312 Z M 27.707031 18.175781 " fill-opacity="1" fill-rule="nonzero"></path><path fill="#07db3c" d="M 42.511719 32.371094 C 42.511719 32.132812 42.320312 31.941406 42.082031 31.941406 L 18.882812 31.941406 C 18.644531 31.941406 18.453125 32.132812 18.453125 32.371094 C 18.453125 32.609375 18.644531 32.800781 18.882812 32.800781 L 42.082031 32.800781 C 42.320312 32.800781 42.511719 32.609375 42.511719 32.371094 Z M 42.511719 32.371094 " fill-opacity="1" fill-rule="nonzero"></path><path fill="#07db3c" d="M 26.679688 46.871094 L 19.628906 46.871094 C 19.390625 46.871094 19.199219 47.0625 19.199219 47.300781 C 19.199219 47.539062 19.390625 47.730469 19.628906 47.730469 L 26.679688 47.730469 C 26.917969 47.730469 27.109375 47.539062 27.109375 47.300781 C 27.109375 47.0625 26.917969 46.871094 26.679688 46.871094 Z M 26.679688 46.871094 " fill-opacity="1" fill-rule="nonzero"></path><path fill="#07db3c" d="M 19.628906 52.023438 L 26.679688 52.023438 C 26.917969 52.023438 27.109375 51.828125 27.109375 51.589844 C 27.109375 51.351562 26.917969 51.160156 26.679688 51.160156 L 19.628906 51.160156 C 19.390625 51.160156 19.199219 51.351562 19.199219 51.589844 C 19.199219 51.828125 19.390625 52.023438 19.628906 52.023438 Z M 19.628906 52.023438 " fill-opacity="1" fill-rule="nonzero"></path><path fill="#07db3c" d="M 32.96875 55.449219 L 19.628906 55.449219 C 19.390625 55.449219 19.199219 55.644531 19.199219 55.878906 C 19.199219 56.117188 19.390625 56.3125 19.628906 56.3125 L 32.96875 56.3125 C 33.207031 56.3125 33.402344 56.117188 33.402344 55.878906 C 33.402344 55.644531 33.207031 55.449219 32.96875 55.449219 Z M 32.96875 55.449219 " fill-opacity="1" fill-rule="nonzero"></path><path fill="#07db3c" d="M 19.199219 60.167969 C 19.199219 60.40625 19.390625 60.601562 19.628906 60.601562 L 41.332031 60.601562 C 41.570312 60.601562 41.765625 60.40625 41.765625 60.167969 C 41.765625 59.929688 41.570312 59.738281 41.332031 59.738281 L 19.628906 59.738281 C 19.390625 59.738281 19.199219 59.929688 19.199219 60.167969 Z M 19.199219 60.167969 " fill-opacity="1" fill-rule="nonzero"></path><path fill="#07db3c" d="M 20.492188 44.546875 L 25.816406 44.546875 C 26.292969 44.546875 26.679688 44.164062 26.679688 43.6875 L 26.679688 38.363281 C 26.679688 37.886719 26.292969 37.5 25.816406 37.5 L 20.492188 37.5 C 20.015625 37.5 19.628906 37.886719 19.628906 38.363281 L 19.628906 43.6875 C 19.628906 44.164062 20.015625 44.546875 20.492188 44.546875 Z M 20.492188 44.546875 " fill-opacity="1" fill-rule="nonzero"></path><path fill="#07db3c" d="M 37.3125 40.566406 C 37.195312 41.4375 36.894531 42.859375 36.546875 44.605469 L 38.136719 44.605469 C 37.78125 42.792969 37.5 41.46875 37.351562 40.566406 Z M 37.3125 40.566406 " fill-opacity="1" fill-rule="nonzero"></path><path fill="#07db3c" d="M 45.058594 40.402344 L 44.4375 40.402344 L 44.4375 47.074219 L 45.042969 47.074219 C 46.367188 47.074219 46.824219 46.078125 46.824219 43.539062 C 46.824219 41.359375 46.417969 40.402344 45.058594 40.402344 Z M 45.058594 40.402344 " fill-opacity="1" fill-rule="nonzero"></path><path fill="#07db3c" d="M 58.984375 35.914062 L 31.519531 35.914062 C 30.839844 35.914062 30.289062 36.464844 30.289062 37.144531 L 30.289062 50.578125 C 30.289062 51.257812 30.839844 51.8125 31.519531 51.8125 L 35.402344 51.8125 L 35.402344 56.078125 C 35.402344 56.308594 35.683594 56.414062 35.832031 56.242188 L 39.6875 51.8125 L 58.984375 51.8125 C 59.664062 51.8125 60.21875 51.257812 60.21875 50.578125 L 60.21875 37.144531 C 60.21875 36.464844 59.664062 35.914062 58.984375 35.914062 Z M 40.378906 48.460938 L 39.109375 48.460938 C 38.992188 48.460938 38.890625 48.378906 38.871094 48.261719 L 38.4375 46.078125 L 36.246094 46.078125 L 35.816406 48.261719 C 35.792969 48.378906 35.691406 48.460938 35.574219 48.460938 L 34.386719 48.460938 C 34.226562 48.460938 34.113281 48.3125 34.148438 48.160156 L 36.226562 39.183594 C 36.25 39.070312 36.351562 38.992188 36.464844 38.992188 L 38.277344 38.992188 C 38.390625 38.992188 38.488281 39.070312 38.515625 39.183594 L 40.617188 48.160156 C 40.652344 48.3125 40.535156 48.460938 40.378906 48.460938 Z M 45.0625 48.460938 L 42.972656 48.460938 C 42.835938 48.460938 42.726562 48.351562 42.726562 48.214844 L 42.726562 39.238281 C 42.726562 39.101562 42.835938 38.992188 42.972656 38.992188 L 45.191406 38.992188 C 47.628906 38.992188 48.574219 40.554688 48.574219 43.53125 C 48.574219 46.730469 47.667969 48.460938 45.0625 48.460938 Z M 53.507812 48.621094 C 51.46875 48.621094 50.757812 47.402344 50.625 46.078125 C 50.609375 45.933594 50.726562 45.808594 50.871094 45.808594 L 52.078125 45.808594 C 52.199219 45.808594 52.300781 45.898438 52.320312 46.015625 C 52.4375 46.710938 52.769531 47.285156 53.554688 47.285156 C 54.390625 47.285156 54.699219 46.761719 54.699219 46.058594 C 54.699219 45.28125 54.316406 44.828125 53.121094 44.257812 C 51.5 43.488281 50.863281 42.804688 50.863281 41.398438 C 50.863281 39.878906 51.839844 38.84375 53.554688 38.84375 C 55.53125 38.84375 56.125 40.085938 56.222656 41.25 C 56.234375 41.394531 56.121094 41.515625 55.976562 41.515625 L 54.792969 41.515625 C 54.671875 41.515625 54.566406 41.425781 54.550781 41.308594 C 54.476562 40.789062 54.277344 40.179688 53.523438 40.179688 C 52.851562 40.179688 52.554688 40.613281 52.554688 41.257812 C 52.554688 41.9375 52.855469 42.257812 53.96875 42.773438 C 55.664062 43.558594 56.429688 44.320312 56.429688 45.90625 C 56.425781 47.394531 55.503906 48.621094 53.507812 48.621094 Z M 53.507812 48.621094 " fill-opacity="1" fill-rule="nonzero"></path><g clip-path="url(#b512cbf136)"><path fill="#07db3c" d="M 12.285156 33.300781 C 12.347656 33.332031 12.410156 33.34375 12.476562 33.34375 C 12.632812 33.34375 12.789062 33.257812 12.863281 33.105469 C 12.96875 32.890625 12.882812 32.632812 12.667969 32.527344 L 9.792969 31.105469 C 9.578125 31 9.320312 31.085938 9.214844 31.300781 C 9.109375 31.511719 9.195312 31.769531 9.410156 31.878906 Z M 12.285156 33.300781 " fill-opacity="1" fill-rule="nonzero"></path></g><g clip-path="url(#1e07f35a64)"><path fill="#07db3c" d="M 12.464844 42.292969 L 9.582031 43.707031 C 9.367188 43.808594 9.28125 44.070312 9.386719 44.28125 C 9.460938 44.433594 9.613281 44.523438 9.773438 44.523438 C 9.835938 44.523438 9.902344 44.507812 9.964844 44.480469 L 12.84375 43.066406 C 13.058594 42.960938 13.144531 42.703125 13.042969 42.492188 C 12.9375 42.277344 12.675781 42.1875 12.464844 42.292969 Z M 12.464844 42.292969 " fill-opacity="1" fill-rule="nonzero"></path></g><path fill="#07db3c" d="M 53.921875 34 C 53.929688 34 53.933594 34 53.9375 34 C 54.175781 33.992188 54.363281 33.792969 54.355469 33.554688 L 54.25 30.347656 C 54.242188 30.109375 54.039062 29.925781 53.804688 29.929688 C 53.566406 29.9375 53.378906 30.136719 53.386719 30.375 L 53.492188 33.582031 C 53.5 33.8125 53.691406 34 53.921875 34 Z M 53.921875 34 " fill-opacity="1" fill-rule="nonzero"></path></svg>