<svg xmlns="http://www.w3.org/2000/svg" xmlns:xlink="http://www.w3.org/1999/xlink" width="100" viewBox="0 0 75 74.999997" height="100" preserveAspectRatio="xMidYMid meet"><defs><clipPath id="bbbd03ca72"><path d="M 7.5 9 L 65.25 9 L 65.25 67.5 L 7.5 67.5 Z M 7.5 9 " clip-rule="nonzero"></path></clipPath></defs><g clip-path="url(#bbbd03ca72)"><path fill="#07db3c" d="M 64.105469 58.359375 L 56.898438 50.246094 C 56.382812 49.667969 55.675781 49.34375 54.902344 49.28125 C 54.128906 49.214844 53.355469 49.472656 52.777344 49.988281 L 51.554688 51.082031 L 48.851562 47.992188 C 54.902344 42.136719 57.089844 33.445312 54.515625 25.398438 L 59.988281 19.925781 L 61.46875 21.40625 C 61.726562 21.664062 62.113281 21.726562 62.433594 21.664062 C 62.753906 21.535156 63.011719 21.277344 63.078125 20.890625 L 64.6875 10.847656 C 64.75 10.527344 64.621094 10.203125 64.429688 10.011719 C 64.234375 9.816406 63.914062 9.6875 63.59375 9.753906 L 53.613281 11.363281 C 53.226562 11.425781 52.96875 11.683594 52.839844 12.007812 C 52.710938 12.328125 52.839844 12.714844 53.097656 12.972656 L 54.578125 14.453125 L 50.714844 18.25 C 50.523438 17.992188 50.265625 17.734375 50.074219 17.480469 C 42.027344 8.402344 28.054688 7.5 18.914062 15.546875 C 17.691406 16.640625 16.660156 17.800781 15.757812 19.023438 C 15.757812 19.023438 15.695312 19.089844 15.695312 19.089844 C 14.472656 20.761719 13.507812 22.628906 12.796875 24.558594 C 12.734375 24.816406 12.667969 24.945312 12.667969 25.074219 C 10.609375 31.191406 11.253906 38.078125 14.792969 43.808594 L 8.484375 43.808594 C 7.96875 43.746094 7.519531 44.195312 7.519531 44.710938 L 7.519531 63.894531 C 7.519531 64.410156 7.96875 64.859375 8.484375 64.859375 L 41.1875 64.859375 C 41.703125 64.859375 42.15625 64.410156 42.15625 63.894531 L 42.15625 52.371094 C 44.023438 51.597656 45.824219 50.503906 47.433594 49.214844 L 50.136719 52.308594 L 48.914062 53.402344 C 48.335938 53.917969 48.011719 54.625 47.949219 55.398438 C 47.882812 56.167969 48.140625 56.941406 48.65625 57.519531 L 55.867188 65.632812 C 56.960938 66.855469 58.441406 67.5 59.988281 67.5 C 61.273438 67.5 62.5625 67.050781 63.59375 66.148438 C 64.6875 65.183594 65.332031 63.832031 65.394531 62.414062 C 65.523438 60.867188 65.074219 59.453125 64.105469 58.359375 Z M 56.640625 13.808594 L 55.800781 12.972656 L 62.691406 11.878906 L 61.597656 18.765625 L 60.757812 17.929688 C 60.375 17.542969 59.792969 17.542969 59.40625 17.929688 L 52.777344 24.429688 L 42.347656 34.859375 L 37.132812 29.644531 C 36.746094 29.257812 36.167969 29.257812 35.78125 29.644531 L 27.605469 37.757812 L 14.730469 24.945312 C 15.179688 23.660156 15.824219 22.4375 16.53125 21.339844 L 26.898438 31.707031 C 27.285156 32.09375 27.863281 32.09375 28.25 31.707031 L 36.425781 23.59375 L 41.640625 28.808594 C 42.027344 29.195312 42.605469 29.195312 42.992188 28.808594 L 56.574219 15.289062 C 56.769531 15.097656 56.832031 14.839844 56.832031 14.582031 C 56.832031 14.324219 56.769531 14.003906 56.640625 13.808594 Z M 20.203125 17.09375 C 28.507812 9.753906 41.253906 10.527344 48.59375 18.832031 C 48.851562 19.089844 49.105469 19.410156 49.300781 19.730469 L 42.347656 26.683594 L 37.132812 21.46875 C 36.746094 21.082031 36.167969 21.082031 35.78125 21.46875 L 27.605469 29.582031 L 17.691406 19.730469 C 18.464844 18.765625 19.300781 17.863281 20.203125 17.09375 Z M 40.222656 62.929688 L 9.449219 62.929688 L 9.449219 45.675781 L 40.222656 45.675781 Z M 41.1875 43.746094 L 17.113281 43.746094 C 13.570312 38.789062 12.605469 32.605469 14.085938 27.007812 L 26.898438 39.816406 C 27.089844 40.011719 27.347656 40.074219 27.605469 40.074219 C 27.863281 40.074219 28.121094 40.011719 28.3125 39.816406 L 36.488281 31.707031 L 41.703125 36.921875 C 42.089844 37.308594 42.667969 37.308594 43.054688 36.921875 L 53.035156 27.007812 C 54.964844 34.34375 52.648438 42.136719 46.917969 47.222656 C 45.503906 48.507812 43.894531 49.539062 42.21875 50.3125 L 42.21875 44.773438 C 42.15625 44.195312 41.703125 43.746094 41.1875 43.746094 Z M 62.367188 64.667969 C 60.886719 65.953125 58.636719 65.828125 57.347656 64.34375 L 50.136719 56.167969 C 49.945312 55.976562 49.878906 55.71875 49.878906 55.460938 C 49.878906 55.203125 50.007812 54.945312 50.203125 54.816406 L 54.0625 51.40625 C 54.257812 51.277344 54.449219 51.148438 54.707031 51.148438 C 54.707031 51.148438 54.773438 51.148438 54.773438 51.148438 C 55.03125 51.148438 55.289062 51.277344 55.417969 51.46875 L 62.625 59.644531 C 63.269531 60.355469 63.527344 61.253906 63.527344 62.222656 C 63.464844 63.1875 63.011719 64.023438 62.367188 64.667969 Z M 62.367188 64.667969 " fill-opacity="1" fill-rule="nonzero"></path></g><path fill="#07db3c" d="M 12.027344 52.050781 C 12.027344 53.851562 13.507812 55.269531 15.246094 55.269531 L 15.757812 55.269531 C 16.46875 55.269531 17.046875 55.847656 17.046875 56.554688 C 17.046875 57.265625 16.46875 57.84375 15.757812 57.84375 L 12.992188 57.84375 C 12.476562 57.84375 12.027344 58.292969 12.027344 58.808594 C 12.027344 59.324219 12.476562 59.773438 12.992188 59.773438 L 15.757812 59.773438 C 17.5625 59.773438 18.980469 58.359375 18.980469 56.554688 C 18.980469 54.753906 17.496094 53.335938 15.757812 53.335938 L 15.246094 53.335938 C 14.535156 53.335938 13.957031 52.757812 13.957031 52.050781 C 13.957031 51.339844 14.535156 50.761719 15.246094 50.761719 L 18.011719 50.761719 C 18.527344 50.761719 18.980469 50.3125 18.980469 49.796875 C 18.980469 49.28125 18.527344 48.832031 18.011719 48.832031 L 15.246094 48.832031 C 13.507812 48.832031 12.027344 50.246094 12.027344 52.050781 Z M 12.027344 52.050781 " fill-opacity="1" fill-rule="nonzero"></path><path fill="#07db3c" d="M 22.328125 59.773438 L 27.347656 59.773438 C 27.863281 59.773438 28.3125 59.324219 28.3125 58.808594 C 28.3125 58.292969 27.863281 57.84375 27.347656 57.84375 L 23.292969 57.84375 L 23.292969 55.269531 L 27.347656 55.269531 C 27.863281 55.269531 28.3125 54.816406 28.3125 54.300781 C 28.3125 53.789062 27.863281 53.335938 27.347656 53.335938 L 23.292969 53.335938 L 23.292969 50.761719 L 27.347656 50.761719 C 27.863281 50.761719 28.3125 50.3125 28.3125 49.796875 C 28.3125 49.28125 27.863281 48.832031 27.347656 48.832031 L 22.328125 48.832031 C 21.8125 48.832031 21.359375 49.28125 21.359375 49.796875 L 21.359375 58.808594 C 21.359375 59.324219 21.8125 59.773438 22.328125 59.773438 Z M 22.328125 59.773438 " fill-opacity="1" fill-rule="nonzero"></path><path fill="#07db3c" d="M 34.171875 59.773438 C 36.101562 59.773438 37.648438 58.230469 37.648438 56.296875 L 37.648438 52.242188 C 37.648438 50.3125 36.101562 48.765625 34.171875 48.765625 C 32.242188 48.765625 30.695312 50.3125 30.695312 52.242188 L 30.695312 56.296875 C 30.695312 58.230469 32.242188 59.773438 34.171875 59.773438 Z M 32.625 52.308594 C 32.625 51.46875 33.335938 50.761719 34.171875 50.761719 C 35.007812 50.761719 35.714844 51.46875 35.714844 52.308594 L 35.714844 56.363281 C 35.714844 57.199219 35.007812 57.90625 34.171875 57.90625 C 33.335938 57.90625 32.625 57.199219 32.625 56.363281 Z M 32.625 52.308594 " fill-opacity="1" fill-rule="nonzero"></path></svg>