<svg xmlns="http://www.w3.org/2000/svg" xmlns:xlink="http://www.w3.org/1999/xlink" width="100" viewBox="0 0 75 74.999997" height="100" preserveAspectRatio="xMidYMid meet"><defs><clipPath id="912efafd89"><path d="M 7.5 7.5 L 67.5 7.5 L 67.5 67.5 L 7.5 67.5 Z M 7.5 7.5 " clip-rule="nonzero"></path></clipPath></defs><g clip-path="url(#912efafd89)"><path fill="#07db3c" d="M 7.898438 28.558594 L 7.898438 12.664062 C 7.898438 12.339844 7.929688 12.015625 7.992188 11.695312 C 8.058594 11.378906 8.152344 11.066406 8.277344 10.765625 C 8.402344 10.464844 8.554688 10.179688 8.734375 9.90625 C 8.917969 9.636719 9.125 9.386719 9.355469 9.15625 C 9.585938 8.925781 9.835938 8.71875 10.105469 8.539062 C 10.378906 8.355469 10.664062 8.203125 10.964844 8.078125 C 11.265625 7.953125 11.574219 7.859375 11.894531 7.796875 C 12.214844 7.730469 12.539062 7.699219 12.863281 7.699219 L 36.707031 7.699219 C 37.03125 7.699219 37.355469 7.730469 37.675781 7.796875 C 37.992188 7.859375 38.304688 7.953125 38.605469 8.078125 C 38.90625 8.203125 39.191406 8.355469 39.464844 8.539062 C 39.734375 8.71875 39.984375 8.925781 40.214844 9.15625 C 40.445312 9.386719 40.652344 9.636719 40.832031 9.90625 C 41.015625 10.179688 41.167969 10.464844 41.292969 10.765625 C 41.417969 11.066406 41.511719 11.378906 41.574219 11.695312 C 41.640625 12.015625 41.671875 12.339844 41.671875 12.664062 L 41.671875 13.660156 C 41.671875 13.789062 41.648438 13.917969 41.597656 14.039062 C 41.546875 14.160156 41.472656 14.269531 41.382812 14.363281 C 41.289062 14.453125 41.179688 14.527344 41.058594 14.578125 C 40.9375 14.628906 40.808594 14.652344 40.679688 14.652344 C 40.546875 14.652344 40.421875 14.628906 40.296875 14.578125 C 40.175781 14.527344 40.070312 14.453125 39.976562 14.363281 C 39.882812 14.269531 39.8125 14.160156 39.761719 14.039062 C 39.710938 13.917969 39.683594 13.789062 39.683594 13.660156 L 39.683594 12.664062 C 39.683594 12.269531 39.609375 11.890625 39.457031 11.527344 C 39.304688 11.160156 39.089844 10.839844 38.8125 10.558594 C 38.53125 10.28125 38.210938 10.066406 37.84375 9.914062 C 37.480469 9.761719 37.101562 9.6875 36.707031 9.683594 L 12.863281 9.683594 C 12.46875 9.6875 12.089844 9.761719 11.722656 9.914062 C 11.359375 10.066406 11.039062 10.28125 10.757812 10.558594 C 10.480469 10.839844 10.261719 11.160156 10.113281 11.527344 C 9.960938 11.890625 9.882812 12.269531 9.882812 12.664062 L 9.882812 28.558594 C 9.882812 28.953125 9.960938 29.335938 10.113281 29.699219 C 10.261719 30.0625 10.480469 30.386719 10.757812 30.664062 C 11.039062 30.945312 11.359375 31.160156 11.722656 31.3125 C 12.089844 31.464844 12.46875 31.539062 12.863281 31.539062 L 15.84375 31.539062 C 16.117188 31.539062 16.351562 31.636719 16.546875 31.832031 L 22.09375 37.378906 C 22.226562 37.492188 22.375 37.515625 22.535156 37.449219 C 22.695312 37.382812 22.785156 37.261719 22.796875 37.089844 L 22.796875 32.53125 C 22.796875 32.402344 22.824219 32.273438 22.875 32.152344 C 22.925781 32.03125 22.996094 31.921875 23.089844 31.832031 C 23.183594 31.738281 23.289062 31.664062 23.410156 31.613281 C 23.53125 31.566406 23.660156 31.539062 23.792969 31.539062 L 30.746094 31.539062 C 30.875 31.539062 31.003906 31.566406 31.125 31.617188 C 31.246094 31.664062 31.355469 31.738281 31.449219 31.832031 C 31.539062 31.925781 31.613281 32.03125 31.664062 32.152344 C 31.714844 32.273438 31.738281 32.402344 31.738281 32.53125 C 31.738281 32.664062 31.714844 32.792969 31.664062 32.914062 C 31.613281 33.035156 31.539062 33.140625 31.449219 33.234375 C 31.355469 33.328125 31.246094 33.402344 31.125 33.449219 C 31.003906 33.5 30.875 33.527344 30.746094 33.527344 L 24.785156 33.527344 L 24.785156 37.089844 C 24.785156 37.574219 24.648438 38.019531 24.378906 38.421875 C 24.109375 38.824219 23.753906 39.117188 23.304688 39.304688 C 22.855469 39.488281 22.394531 39.535156 21.917969 39.441406 C 21.441406 39.347656 21.035156 39.128906 20.691406 38.785156 L 15.433594 33.527344 L 12.863281 33.527344 C 12.539062 33.527344 12.214844 33.492188 11.894531 33.429688 C 11.574219 33.367188 11.265625 33.273438 10.964844 33.148438 C 10.664062 33.023438 10.378906 32.867188 10.105469 32.6875 C 9.835938 32.507812 9.585938 32.300781 9.355469 32.070312 C 9.125 31.839844 8.917969 31.589844 8.734375 31.316406 C 8.554688 31.046875 8.402344 30.761719 8.277344 30.460938 C 8.152344 30.160156 8.058594 29.847656 7.992188 29.527344 C 7.929688 29.207031 7.898438 28.886719 7.898438 28.558594 Z M 67.5 21.605469 L 67.5 37.5 C 67.5 37.824219 67.46875 38.148438 67.402344 38.46875 C 67.339844 38.789062 67.246094 39.097656 67.121094 39.398438 C 66.996094 39.699219 66.84375 39.988281 66.660156 40.257812 C 66.480469 40.527344 66.273438 40.78125 66.042969 41.011719 C 65.8125 41.242188 65.5625 41.445312 65.292969 41.628906 C 65.019531 41.808594 64.734375 41.960938 64.433594 42.085938 C 64.132812 42.210938 63.820312 42.304688 63.5 42.371094 C 63.183594 42.433594 62.859375 42.464844 62.53125 42.46875 L 54.003906 42.46875 L 48.746094 47.726562 C 48.402344 48.066406 47.992188 48.285156 47.519531 48.382812 C 47.042969 48.476562 46.582031 48.429688 46.132812 48.246094 C 45.683594 48.058594 45.324219 47.765625 45.054688 47.363281 C 44.785156 46.957031 44.652344 46.515625 44.652344 46.027344 L 44.652344 42.46875 L 38.691406 42.46875 C 38.367188 42.464844 38.042969 42.433594 37.722656 42.371094 C 37.402344 42.304688 37.09375 42.210938 36.792969 42.085938 C 36.492188 41.960938 36.203125 41.808594 35.933594 41.628906 C 35.664062 41.445312 35.414062 41.242188 35.183594 41.011719 C 34.949219 40.78125 34.746094 40.527344 34.5625 40.257812 C 34.382812 39.988281 34.230469 39.699219 34.105469 39.398438 C 33.980469 39.097656 33.886719 38.789062 33.820312 38.46875 C 33.757812 38.148438 33.726562 37.824219 33.726562 37.5 L 33.726562 21.605469 C 33.726562 21.28125 33.757812 20.957031 33.820312 20.636719 C 33.886719 20.316406 33.980469 20.007812 34.105469 19.707031 C 34.230469 19.40625 34.382812 19.117188 34.5625 18.847656 C 34.746094 18.578125 34.949219 18.324219 35.179688 18.09375 C 35.414062 17.863281 35.664062 17.660156 35.933594 17.476562 C 36.203125 17.296875 36.492188 17.144531 36.792969 17.019531 C 37.09375 16.894531 37.402344 16.800781 37.722656 16.734375 C 38.042969 16.671875 38.367188 16.640625 38.691406 16.640625 L 62.53125 16.640625 C 62.859375 16.640625 63.183594 16.671875 63.5 16.734375 C 63.820312 16.800781 64.132812 16.894531 64.433594 17.019531 C 64.734375 17.144531 65.019531 17.296875 65.292969 17.476562 C 65.5625 17.660156 65.8125 17.863281 66.042969 18.09375 C 66.273438 18.324219 66.480469 18.578125 66.660156 18.847656 C 66.84375 19.117188 66.996094 19.40625 67.121094 19.707031 C 67.246094 20.007812 67.339844 20.316406 67.402344 20.636719 C 67.46875 20.957031 67.5 21.28125 67.5 21.605469 Z M 65.511719 21.605469 C 65.511719 21.210938 65.4375 20.832031 65.285156 20.464844 C 65.132812 20.101562 64.917969 19.777344 64.640625 19.5 C 64.359375 19.21875 64.039062 19.003906 63.671875 18.855469 C 63.308594 18.703125 62.929688 18.625 62.53125 18.625 L 38.691406 18.625 C 38.296875 18.625 37.917969 18.703125 37.550781 18.855469 C 37.1875 19.003906 36.863281 19.21875 36.585938 19.5 C 36.304688 19.777344 36.089844 20.101562 35.941406 20.464844 C 35.789062 20.832031 35.710938 21.210938 35.710938 21.605469 L 35.710938 37.5 C 35.710938 37.894531 35.789062 38.273438 35.941406 38.640625 C 36.089844 39.003906 36.304688 39.328125 36.585938 39.605469 C 36.863281 39.886719 37.1875 40.101562 37.550781 40.253906 C 37.917969 40.402344 38.296875 40.480469 38.691406 40.480469 L 45.644531 40.480469 C 45.777344 40.480469 45.902344 40.503906 46.027344 40.554688 C 46.148438 40.605469 46.253906 40.679688 46.347656 40.769531 C 46.441406 40.863281 46.511719 40.972656 46.5625 41.09375 C 46.613281 41.214844 46.640625 41.339844 46.640625 41.472656 L 46.640625 46.027344 C 46.652344 46.203125 46.742188 46.324219 46.902344 46.390625 C 47.0625 46.457031 47.207031 46.433594 47.339844 46.320312 L 52.890625 40.769531 C 53.085938 40.578125 53.320312 40.480469 53.59375 40.480469 L 62.53125 40.480469 C 62.929688 40.480469 63.308594 40.402344 63.671875 40.253906 C 64.039062 40.101562 64.359375 39.886719 64.640625 39.605469 C 64.917969 39.328125 65.132812 39.003906 65.285156 38.640625 C 65.4375 38.273438 65.511719 37.894531 65.511719 37.5 Z M 28.371094 18.625 L 27.238281 22.597656 L 29.75 22.597656 C 29.882812 22.597656 30.011719 22.625 30.132812 22.675781 C 30.253906 22.726562 30.359375 22.796875 30.453125 22.890625 C 30.546875 22.984375 30.617188 23.089844 30.667969 23.210938 C 30.71875 23.335938 30.746094 23.460938 30.746094 23.59375 C 30.746094 23.722656 30.71875 23.851562 30.667969 23.972656 C 30.617188 24.09375 30.546875 24.203125 30.453125 24.296875 C 30.359375 24.386719 30.253906 24.460938 30.132812 24.511719 C 30.011719 24.5625 29.882812 24.585938 29.75 24.585938 L 26.667969 24.585938 L 25.742188 27.839844 C 25.679688 28.050781 25.558594 28.226562 25.382812 28.359375 C 25.207031 28.492188 25.007812 28.558594 24.785156 28.558594 C 24.691406 28.558594 24.601562 28.546875 24.511719 28.523438 C 24.386719 28.484375 24.269531 28.425781 24.167969 28.34375 C 24.0625 28.261719 23.980469 28.164062 23.917969 28.050781 C 23.851562 27.933594 23.8125 27.8125 23.796875 27.679688 C 23.78125 27.550781 23.792969 27.421875 23.828125 27.292969 L 24.601562 24.585938 L 20.710938 24.585938 L 19.78125 27.839844 C 19.71875 28.050781 19.601562 28.226562 19.421875 28.359375 C 19.246094 28.492188 19.046875 28.558594 18.824219 28.558594 C 18.734375 28.558594 18.640625 28.546875 18.550781 28.523438 C 18.425781 28.484375 18.308594 28.425781 18.207031 28.34375 C 18.105469 28.261719 18.019531 28.164062 17.957031 28.050781 C 17.890625 27.933594 17.851562 27.8125 17.835938 27.679688 C 17.824219 27.550781 17.832031 27.421875 17.867188 27.292969 L 18.640625 24.585938 L 15.84375 24.585938 C 15.710938 24.585938 15.585938 24.5625 15.464844 24.511719 C 15.34375 24.460938 15.234375 24.386719 15.140625 24.296875 C 15.046875 24.203125 14.976562 24.09375 14.925781 23.972656 C 14.875 23.851562 14.851562 23.722656 14.851562 23.59375 C 14.851562 23.460938 14.875 23.335938 14.925781 23.210938 C 14.976562 23.089844 15.046875 22.984375 15.140625 22.890625 C 15.234375 22.796875 15.34375 22.726562 15.464844 22.675781 C 15.585938 22.625 15.710938 22.597656 15.84375 22.597656 L 19.210938 22.597656 L 20.34375 18.625 L 17.832031 18.625 C 17.699219 18.625 17.574219 18.601562 17.449219 18.550781 C 17.328125 18.5 17.222656 18.429688 17.128906 18.335938 C 17.035156 18.242188 16.964844 18.132812 16.914062 18.011719 C 16.863281 17.890625 16.835938 17.765625 16.835938 17.632812 C 16.835938 17.5 16.863281 17.375 16.914062 17.253906 C 16.964844 17.128906 17.035156 17.023438 17.128906 16.929688 C 17.222656 16.835938 17.328125 16.765625 17.449219 16.714844 C 17.574219 16.664062 17.699219 16.640625 17.832031 16.640625 L 20.914062 16.640625 L 21.84375 13.386719 C 21.917969 13.125 22.074219 12.925781 22.316406 12.792969 C 22.554688 12.660156 22.804688 12.632812 23.070312 12.707031 C 23.332031 12.78125 23.53125 12.9375 23.664062 13.175781 C 23.796875 13.417969 23.828125 13.667969 23.753906 13.929688 L 22.980469 16.640625 L 26.875 16.640625 L 27.804688 13.386719 C 27.878906 13.125 28.035156 12.925781 28.277344 12.792969 C 28.515625 12.660156 28.765625 12.632812 29.03125 12.707031 C 29.292969 12.78125 29.492188 12.9375 29.625 13.175781 C 29.757812 13.417969 29.789062 13.667969 29.714844 13.929688 L 28.941406 16.640625 L 31.738281 16.640625 C 31.871094 16.640625 31.996094 16.664062 32.117188 16.714844 C 32.242188 16.765625 32.347656 16.835938 32.441406 16.929688 C 32.535156 17.023438 32.605469 17.128906 32.65625 17.253906 C 32.707031 17.375 32.730469 17.5 32.730469 17.632812 C 32.730469 17.765625 32.707031 17.890625 32.65625 18.011719 C 32.605469 18.132812 32.535156 18.242188 32.441406 18.335938 C 32.347656 18.429688 32.242188 18.5 32.117188 18.550781 C 31.996094 18.601562 31.871094 18.625 31.738281 18.625 Z M 26.304688 18.625 L 22.414062 18.625 L 21.277344 22.597656 L 25.171875 22.597656 Z M 59.554688 29.554688 L 59.554688 35.511719 C 59.550781 35.910156 59.476562 36.289062 59.324219 36.652344 C 59.175781 37.019531 58.957031 37.339844 58.679688 37.621094 C 58.398438 37.898438 58.078125 38.113281 57.710938 38.265625 C 57.347656 38.417969 56.96875 38.492188 56.574219 38.492188 L 51.605469 38.492188 C 50.113281 38.480469 48.730469 38.09375 47.449219 37.328125 C 47.289062 37.683594 47.046875 37.964844 46.71875 38.175781 C 46.390625 38.386719 46.035156 38.492188 45.644531 38.492188 L 43.660156 38.492188 C 43.394531 38.492188 43.140625 38.441406 42.898438 38.339844 C 42.65625 38.242188 42.441406 38.097656 42.253906 37.910156 C 42.070312 37.722656 41.925781 37.507812 41.824219 37.265625 C 41.722656 37.023438 41.671875 36.769531 41.671875 36.507812 L 41.671875 27.566406 C 41.671875 27.304688 41.722656 27.050781 41.824219 26.804688 C 41.925781 26.5625 42.070312 26.347656 42.253906 26.164062 C 42.441406 25.976562 42.65625 25.832031 42.898438 25.730469 C 43.140625 25.628906 43.394531 25.578125 43.660156 25.578125 L 45.644531 25.578125 C 45.875 25.578125 46.097656 25.617188 46.316406 25.695312 C 46.53125 25.773438 46.726562 25.886719 46.90625 26.03125 C 47.082031 26.179688 47.230469 26.351562 47.347656 26.546875 C 47.46875 26.746094 47.550781 26.957031 47.59375 27.183594 C 47.832031 27.019531 48.046875 26.832031 48.246094 26.625 C 49.074219 25.804688 49.535156 24.8125 49.621094 23.648438 C 49.566406 22.820312 49.816406 22.101562 50.378906 21.492188 C 50.988281 20.867188 51.730469 20.574219 52.597656 20.613281 C 53.039062 20.625 53.445312 20.742188 53.824219 20.96875 C 54.199219 21.191406 54.496094 21.496094 54.714844 21.875 C 55.097656 22.601562 55.316406 23.371094 55.371094 24.191406 C 55.429688 25.007812 55.316406 25.800781 55.039062 26.574219 L 56.574219 26.574219 C 56.96875 26.574219 57.347656 26.648438 57.710938 26.800781 C 58.078125 26.953125 58.398438 27.167969 58.679688 27.445312 C 58.957031 27.726562 59.175781 28.046875 59.324219 28.414062 C 59.476562 28.777344 59.550781 29.15625 59.554688 29.554688 Z M 45.648438 36.507812 L 45.644531 27.566406 L 43.660156 27.566406 L 43.660156 36.507812 Z M 57.566406 29.554688 C 57.566406 29.421875 57.539062 29.292969 57.492188 29.171875 C 57.441406 29.050781 57.367188 28.945312 57.273438 28.851562 C 57.183594 28.757812 57.074219 28.6875 56.953125 28.636719 C 56.832031 28.585938 56.703125 28.558594 56.574219 28.558594 L 53.59375 28.558594 C 53.421875 28.558594 53.261719 28.519531 53.113281 28.4375 C 52.964844 28.351562 52.84375 28.238281 52.75 28.09375 C 52.660156 27.949219 52.609375 27.792969 52.601562 27.621094 C 52.589844 27.453125 52.625 27.289062 52.699219 27.136719 C 53.585938 25.28125 53.507812 23.6875 53.03125 22.933594 C 52.953125 22.808594 52.792969 22.597656 52.597656 22.597656 C 52.304688 22.574219 52.042969 22.660156 51.824219 22.855469 C 51.65625 23.054688 51.582031 23.28125 51.605469 23.539062 C 51.582031 24.375 51.410156 25.179688 51.078125 25.949219 C 50.746094 26.71875 50.285156 27.398438 49.691406 27.988281 C 49.117188 28.621094 48.433594 29.078125 47.632812 29.363281 L 47.632812 35.058594 C 48.792969 35.988281 50.117188 36.472656 51.605469 36.507812 L 56.574219 36.507812 C 56.703125 36.507812 56.832031 36.480469 56.953125 36.429688 C 57.074219 36.378906 57.183594 36.308594 57.273438 36.214844 C 57.367188 36.121094 57.441406 36.015625 57.492188 35.894531 C 57.539062 35.773438 57.566406 35.644531 57.566406 35.511719 Z M 35.710938 51.40625 C 35.710938 51.933594 35.609375 52.441406 35.410156 52.925781 C 35.207031 53.414062 34.917969 53.84375 34.546875 54.214844 C 34.175781 54.589844 33.746094 54.875 33.257812 55.078125 C 32.773438 55.277344 32.265625 55.378906 31.738281 55.378906 L 31.738281 62.335938 C 31.738281 62.558594 31.671875 62.757812 31.535156 62.9375 C 31.402344 63.113281 31.226562 63.230469 31.011719 63.292969 C 30.796875 63.351562 30.582031 63.339844 30.375 63.257812 C 30.167969 63.175781 30.007812 63.035156 29.894531 62.84375 C 29.789062 62.675781 27.242188 58.726562 19.816406 58.394531 L 19.816406 63.824219 C 19.816406 64.285156 19.730469 64.730469 19.554688 65.15625 C 19.375 65.582031 19.125 65.957031 18.800781 66.28125 C 18.472656 66.609375 18.097656 66.859375 17.671875 67.035156 C 17.246094 67.214844 16.800781 67.300781 16.339844 67.300781 C 15.878906 67.300781 15.4375 67.214844 15.011719 67.035156 C 14.585938 66.859375 14.207031 66.609375 13.882812 66.28125 C 13.554688 65.957031 13.304688 65.582031 13.128906 65.15625 C 12.953125 64.730469 12.863281 64.285156 12.863281 63.824219 L 12.863281 58.066406 C 12.46875 57.949219 12.082031 57.796875 11.714844 57.609375 C 11.34375 57.421875 10.996094 57.207031 10.664062 56.957031 C 10.332031 56.707031 10.027344 56.429688 9.746094 56.125 C 9.464844 55.820312 9.210938 55.496094 8.988281 55.144531 C 8.765625 54.796875 8.578125 54.429688 8.417969 54.046875 C 8.261719 53.664062 8.140625 53.269531 8.050781 52.867188 C 7.964844 52.460938 7.914062 52.050781 7.902344 51.636719 C 7.886719 51.222656 7.910156 50.8125 7.96875 50.402344 C 8.03125 49.992188 8.125 49.589844 8.257812 49.199219 C 8.390625 48.804688 8.554688 48.425781 8.753906 48.0625 C 8.953125 47.699219 9.183594 47.359375 9.441406 47.035156 C 9.703125 46.714844 9.988281 46.417969 10.304688 46.144531 C 10.617188 45.875 10.949219 45.632812 11.308594 45.421875 C 11.664062 45.210938 12.035156 45.035156 12.425781 44.890625 C 12.8125 44.746094 13.210938 44.636719 13.617188 44.5625 C 14.027344 44.488281 14.4375 44.453125 14.851562 44.453125 L 18.824219 44.453125 C 27.027344 44.453125 29.785156 40.144531 29.894531 39.964844 C 30.015625 39.773438 30.175781 39.640625 30.382812 39.558594 C 30.589844 39.480469 30.800781 39.46875 31.015625 39.527344 C 31.226562 39.585938 31.402344 39.707031 31.535156 39.882812 C 31.671875 40.058594 31.738281 40.257812 31.738281 40.480469 L 31.738281 47.433594 C 32.265625 47.433594 32.773438 47.535156 33.257812 47.738281 C 33.746094 47.9375 34.175781 48.226562 34.546875 48.597656 C 34.917969 48.972656 35.207031 49.402344 35.410156 49.886719 C 35.609375 50.375 35.710938 50.878906 35.710938 51.40625 Z M 14.851562 56.375 L 17.832031 56.375 L 17.832031 46.441406 L 14.851562 46.441406 C 14.523438 46.441406 14.203125 46.472656 13.882812 46.535156 C 13.5625 46.597656 13.25 46.695312 12.949219 46.820312 C 12.648438 46.941406 12.363281 47.097656 12.089844 47.277344 C 11.820312 47.457031 11.570312 47.664062 11.339844 47.894531 C 11.109375 48.125 10.902344 48.375 10.722656 48.648438 C 10.539062 48.917969 10.386719 49.207031 10.261719 49.507812 C 10.136719 49.808594 10.042969 50.117188 9.980469 50.4375 C 9.914062 50.757812 9.882812 51.082031 9.882812 51.40625 C 9.882812 51.734375 9.914062 52.054688 9.980469 52.375 C 10.042969 52.695312 10.136719 53.007812 10.261719 53.308594 C 10.386719 53.609375 10.539062 53.894531 10.722656 54.167969 C 10.902344 54.4375 11.109375 54.6875 11.339844 54.917969 C 11.570312 55.148438 11.820312 55.355469 12.089844 55.535156 C 12.363281 55.71875 12.648438 55.871094 12.949219 55.996094 C 13.25 56.121094 13.5625 56.214844 13.882812 56.277344 C 14.203125 56.34375 14.523438 56.375 14.851562 56.375 Z M 17.832031 63.824219 L 17.832031 58.359375 L 14.851562 58.359375 L 14.851562 63.824219 C 14.851562 64.023438 14.890625 64.210938 14.964844 64.394531 C 15.039062 64.578125 15.148438 64.738281 15.289062 64.878906 C 15.425781 65.019531 15.589844 65.125 15.769531 65.199219 C 15.953125 65.277344 16.144531 65.316406 16.339844 65.316406 C 16.539062 65.316406 16.730469 65.277344 16.910156 65.199219 C 17.09375 65.125 17.253906 65.019531 17.394531 64.878906 C 17.535156 64.738281 17.640625 64.578125 17.71875 64.394531 C 17.792969 64.210938 17.832031 64.023438 17.832031 63.824219 Z M 29.75 43.003906 C 28.003906 44.460938 24.855469 46.1875 19.816406 46.398438 L 19.816406 56.414062 C 24.855469 56.625 28.003906 58.351562 29.75 59.8125 Z M 33.726562 51.40625 C 33.726562 51.144531 33.675781 50.890625 33.574219 50.648438 C 33.472656 50.402344 33.328125 50.1875 33.140625 50.003906 C 32.957031 49.816406 32.742188 49.671875 32.5 49.574219 C 32.253906 49.472656 32 49.421875 31.738281 49.421875 L 31.738281 53.394531 C 32 53.394531 32.253906 53.34375 32.5 53.242188 C 32.742188 53.140625 32.957031 52.996094 33.140625 52.8125 C 33.328125 52.625 33.472656 52.410156 33.574219 52.167969 C 33.675781 51.925781 33.726562 51.671875 33.726562 51.40625 Z M 41.671875 50.414062 L 38.691406 50.414062 C 38.558594 50.414062 38.433594 50.4375 38.3125 50.488281 C 38.191406 50.539062 38.082031 50.613281 37.988281 50.703125 C 37.894531 50.796875 37.824219 50.90625 37.773438 51.027344 C 37.722656 51.148438 37.699219 51.277344 37.699219 51.40625 C 37.699219 51.539062 37.722656 51.664062 37.773438 51.789062 C 37.824219 51.910156 37.894531 52.015625 37.988281 52.109375 C 38.082031 52.203125 38.191406 52.273438 38.3125 52.324219 C 38.433594 52.375 38.558594 52.402344 38.691406 52.402344 L 41.671875 52.402344 C 41.804688 52.402344 41.929688 52.375 42.050781 52.324219 C 42.175781 52.273438 42.28125 52.203125 42.375 52.109375 C 42.46875 52.015625 42.539062 51.910156 42.589844 51.789062 C 42.640625 51.664062 42.664062 51.539062 42.664062 51.40625 C 42.664062 51.277344 42.640625 51.148438 42.589844 51.027344 C 42.539062 50.90625 42.46875 50.796875 42.375 50.703125 C 42.28125 50.613281 42.175781 50.539062 42.050781 50.488281 C 41.929688 50.4375 41.804688 50.414062 41.671875 50.414062 Z M 41.988281 55.433594 L 39.007812 54.4375 C 38.882812 54.398438 38.753906 54.378906 38.621094 54.390625 C 38.488281 54.398438 38.363281 54.433594 38.246094 54.492188 C 38.128906 54.550781 38.027344 54.628906 37.941406 54.730469 C 37.855469 54.828125 37.789062 54.941406 37.746094 55.066406 C 37.707031 55.191406 37.691406 55.320312 37.699219 55.449219 C 37.707031 55.582031 37.742188 55.707031 37.800781 55.824219 C 37.859375 55.941406 37.941406 56.046875 38.039062 56.132812 C 38.140625 56.21875 38.253906 56.28125 38.378906 56.324219 L 41.359375 57.316406 C 41.617188 57.402344 41.871094 57.382812 42.113281 57.261719 C 42.359375 57.136719 42.523438 56.949219 42.613281 56.6875 C 42.699219 56.429688 42.679688 56.175781 42.558594 55.929688 C 42.4375 55.6875 42.246094 55.519531 41.988281 55.433594 Z M 38.691406 48.425781 C 38.800781 48.425781 38.90625 48.410156 39.007812 48.375 L 41.988281 47.382812 C 42.113281 47.339844 42.222656 47.277344 42.324219 47.191406 C 42.421875 47.105469 42.503906 47.003906 42.5625 46.882812 C 42.621094 46.765625 42.65625 46.640625 42.664062 46.511719 C 42.675781 46.378906 42.660156 46.25 42.617188 46.125 C 42.574219 46 42.511719 45.886719 42.425781 45.789062 C 42.335938 45.6875 42.234375 45.609375 42.117188 45.550781 C 42 45.492188 41.875 45.457031 41.742188 45.449219 C 41.609375 45.441406 41.484375 45.457031 41.359375 45.5 L 38.378906 46.492188 C 38.148438 46.570312 37.96875 46.710938 37.84375 46.921875 C 37.714844 47.128906 37.671875 47.351562 37.710938 47.59375 C 37.75 47.832031 37.863281 48.03125 38.046875 48.191406 C 38.234375 48.347656 38.449219 48.425781 38.691406 48.425781 Z M 38.691406 48.425781 " fill-opacity="1" fill-rule="nonzero"></path></g></svg>