<svg xmlns="http://www.w3.org/2000/svg" xmlns:xlink="http://www.w3.org/1999/xlink" width="100" viewBox="0 0 75 74.999997" height="100" preserveAspectRatio="xMidYMid meet"><defs><clipPath id="cbc9cff7fc"><path d="M 40 7.5 L 67.5 7.5 L 67.5 32 L 40 32 Z M 40 7.5 " clip-rule="nonzero"></path></clipPath><clipPath id="14746f8839"><path d="M 16 58 L 25 58 L 25 67.5 L 16 67.5 Z M 16 58 " clip-rule="nonzero"></path></clipPath></defs><path fill="#07db3c" d="M 18.453125 39.753906 C 18.304688 39.367188 17.867188 39.175781 17.484375 39.324219 L 11.195312 41.761719 C 8.757812 42.707031 7.542969 45.460938 8.484375 47.898438 L 11.472656 55.609375 C 12.199219 57.484375 14 58.636719 15.902344 58.636719 C 16.46875 58.636719 17.046875 58.535156 17.609375 58.316406 L 23.898438 55.878906 C 24.085938 55.808594 24.234375 55.664062 24.3125 55.484375 C 24.394531 55.300781 24.398438 55.09375 24.328125 54.910156 Z M 18.453125 39.753906 " fill-opacity="1" fill-rule="nonzero"></path><path fill="#07db3c" d="M 41.699219 43.242188 C 41.316406 43.390625 41.125 43.824219 41.273438 44.210938 C 41.421875 44.601562 41.867188 44.785156 42.242188 44.636719 C 44.824219 43.636719 46.109375 40.722656 45.109375 38.140625 C 44.625 36.890625 43.683594 35.902344 42.457031 35.359375 C 41.230469 34.816406 39.863281 34.789062 38.613281 35.273438 C 38.226562 35.421875 38.035156 35.855469 38.183594 36.242188 C 38.335938 36.625 38.769531 36.8125 39.152344 36.667969 C 40.03125 36.328125 40.988281 36.347656 41.851562 36.730469 C 42.710938 37.109375 43.375 37.804688 43.714844 38.679688 C 44.417969 40.492188 43.511719 42.539062 41.699219 43.242188 Z M 41.699219 43.242188 " fill-opacity="1" fill-rule="nonzero"></path><path fill="#07db3c" d="M 57.445312 18.382812 L 51.925781 15.625 C 51.746094 15.535156 51.554688 15.488281 51.367188 15.488281 C 51.140625 15.488281 50.917969 15.550781 50.710938 15.679688 C 50.335938 15.910156 50.121094 16.296875 50.121094 16.738281 L 50.121094 22.257812 C 50.121094 22.699219 50.335938 23.089844 50.710938 23.320312 C 51.089844 23.554688 51.53125 23.574219 51.925781 23.375 L 57.445312 20.617188 C 57.878906 20.398438 58.136719 19.984375 58.136719 19.5 C 58.136719 19.019531 57.878906 18.601562 57.445312 18.382812 Z M 57.445312 18.382812 " fill-opacity="1" fill-rule="nonzero"></path><g clip-path="url(#cbc9cff7fc)"><path fill="#07db3c" d="M 62.792969 7.800781 L 45.464844 7.800781 C 42.847656 7.800781 40.722656 9.925781 40.722656 12.542969 L 40.722656 26.457031 C 40.722656 29.074219 42.847656 31.199219 45.464844 31.199219 L 62.792969 31.199219 C 65.40625 31.199219 67.535156 29.074219 67.535156 26.457031 L 67.535156 12.542969 C 67.535156 9.925781 65.40625 7.800781 62.792969 7.800781 Z M 58.113281 21.957031 L 52.597656 24.714844 C 51.742188 25.140625 50.742188 25.097656 49.925781 24.59375 C 49.109375 24.089844 48.621094 23.21875 48.621094 22.257812 L 48.621094 16.738281 C 48.621094 15.78125 49.109375 14.910156 49.925781 14.40625 C 50.738281 13.902344 51.738281 13.855469 52.597656 14.285156 L 58.113281 17.042969 C 59.050781 17.511719 59.632812 18.453125 59.632812 19.5 C 59.632812 20.546875 59.050781 21.488281 58.113281 21.957031 Z M 58.113281 21.957031 " fill-opacity="1" fill-rule="nonzero"></path></g><g clip-path="url(#14746f8839)"><path fill="#07db3c" d="M 21.96875 58.234375 L 18.148438 59.710938 C 17.722656 59.878906 17.285156 59.980469 16.839844 60.046875 L 18.941406 65.464844 C 19.203125 66.140625 19.710938 66.675781 20.375 66.96875 C 21.042969 67.261719 21.78125 67.277344 22.457031 67.015625 C 23.132812 66.753906 23.667969 66.242188 23.960938 65.578125 C 24.253906 64.914062 24.269531 64.175781 24.007812 63.5 Z M 21.96875 58.234375 " fill-opacity="1" fill-rule="nonzero"></path></g><path fill="#07db3c" d="M 50.769531 32.699219 L 49.046875 32.699219 C 49.652344 33.710938 50.199219 34.808594 50.65625 35.992188 C 51.960938 39.359375 52.378906 42.828125 51.835938 45.753906 C 51.316406 48.550781 49.980469 50.5 48.074219 51.238281 C 37.609375 53.789062 28.410156 30.824219 39.222656 26.253906 L 39.222656 24.742188 C 38.785156 24.808594 38.351562 24.90625 37.933594 25.066406 C 37.019531 25.421875 36.214844 25.980469 35.53125 26.714844 L 19.375 37.980469 L 26.199219 55.597656 L 45.828125 53.023438 C 46.773438 53.109375 47.726562 52.980469 48.617188 52.636719 C 51.023438 51.703125 52.691406 49.355469 53.308594 46.027344 C 53.902344 42.832031 53.457031 39.074219 52.050781 35.449219 C 51.675781 34.484375 51.246094 33.5625 50.769531 32.699219 Z M 50.769531 32.699219 " fill-opacity="1" fill-rule="nonzero"></path></svg>