<svg xmlns="http://www.w3.org/2000/svg" xmlns:xlink="http://www.w3.org/1999/xlink" width="100" viewBox="0 0 75 74.999997" height="100" preserveAspectRatio="xMidYMid meet"><defs><clipPath id="14bf71fc2d"><path d="M 7.5 18.75 L 59 18.75 L 59 56.25 L 7.5 56.25 Z M 7.5 18.75 " clip-rule="nonzero"></path></clipPath><clipPath id="968ad5c2a1"><path d="M 47 28 L 67.5 28 L 67.5 48 L 47 48 Z M 47 28 " clip-rule="nonzero"></path></clipPath></defs><path fill="#07db3c" d="M 29.0625 46.875 C 28.546875 46.875 28.125 47.296875 28.125 47.8125 C 28.125 48.328125 28.546875 48.75 29.0625 48.75 L 36.5625 48.75 C 37.078125 48.75 37.5 48.328125 37.5 47.8125 C 37.5 47.296875 37.078125 46.875 36.5625 46.875 Z M 29.0625 46.875 " fill-opacity="1" fill-rule="nonzero"></path><path fill="#07db3c" d="M 15.984375 47.53125 C 15.984375 47.75 15.90625 47.9375 15.75 48.09375 C 15.59375 48.25 15.40625 48.328125 15.1875 48.328125 C 14.96875 48.328125 14.78125 48.25 14.625 48.09375 C 14.46875 47.9375 14.390625 47.75 14.390625 47.53125 C 14.390625 47.3125 14.46875 47.125 14.625 46.96875 C 14.78125 46.8125 14.96875 46.734375 15.1875 46.734375 C 15.40625 46.734375 15.59375 46.8125 15.75 46.96875 C 15.90625 47.125 15.984375 47.3125 15.984375 47.53125 Z M 15.984375 47.53125 " fill-opacity="1" fill-rule="nonzero"></path><path fill="#07db3c" d="M 12.84375 47.53125 C 12.84375 47.75 12.765625 47.9375 12.609375 48.09375 C 12.453125 48.25 12.265625 48.328125 12.046875 48.328125 C 11.828125 48.328125 11.640625 48.25 11.484375 48.09375 C 11.328125 47.9375 11.25 47.75 11.25 47.53125 C 11.25 47.3125 11.328125 47.125 11.484375 46.96875 C 11.640625 46.8125 11.828125 46.734375 12.046875 46.734375 C 12.265625 46.734375 12.453125 46.8125 12.609375 46.96875 C 12.765625 47.125 12.84375 47.3125 12.84375 47.53125 Z M 12.84375 47.53125 " fill-opacity="1" fill-rule="nonzero"></path><path fill="#07db3c" d="M 28.453125 26.203125 C 28.171875 25.78125 27.5625 25.640625 27.140625 25.921875 L 18.703125 31.546875 C 18.421875 31.734375 18.28125 32.015625 18.28125 32.34375 C 18.28125 32.671875 18.421875 32.953125 18.703125 33.140625 C 18.703125 33.140625 27.140625 38.765625 27.140625 38.765625 C 27.5625 39.046875 28.171875 38.953125 28.453125 38.484375 C 28.734375 38.0625 28.640625 37.453125 28.171875 37.171875 L 20.90625 32.34375 L 28.171875 27.515625 C 28.59375 27.234375 28.734375 26.625 28.453125 26.203125 Z M 28.453125 26.203125 " fill-opacity="1" fill-rule="nonzero"></path><path fill="#07db3c" d="M 37.171875 38.484375 C 37.453125 38.90625 38.0625 39.046875 38.484375 38.765625 L 46.921875 33.140625 C 47.203125 32.953125 47.34375 32.671875 47.34375 32.34375 C 47.34375 32.015625 47.203125 31.734375 46.921875 31.546875 L 38.484375 25.921875 C 38.0625 25.640625 37.453125 25.734375 37.171875 26.203125 C 36.890625 26.625 36.984375 27.234375 37.453125 27.515625 L 44.71875 32.34375 L 37.453125 37.171875 C 37.03125 37.453125 36.890625 38.0625 37.171875 38.484375 Z M 37.171875 38.484375 " fill-opacity="1" fill-rule="nonzero"></path><path fill="#07db3c" d="M 33.796875 25.078125 L 30.046875 39.140625 C 29.90625 39.65625 30.234375 40.171875 30.703125 40.265625 C 30.796875 40.265625 30.84375 40.3125 30.9375 40.3125 C 31.359375 40.3125 31.734375 40.03125 31.828125 39.609375 L 35.578125 25.546875 C 35.71875 25.03125 35.390625 24.515625 34.921875 24.421875 C 34.453125 24.28125 33.9375 24.5625 33.796875 25.078125 Z M 33.796875 25.078125 " fill-opacity="1" fill-rule="nonzero"></path><g clip-path="url(#14bf71fc2d)"><path fill="#07db3c" d="M 29.0625 54.375 L 26.25 54.375 C 25.734375 54.375 25.3125 54.796875 25.3125 55.3125 C 25.3125 55.828125 25.734375 56.25 26.25 56.25 L 39.375 56.25 C 39.890625 56.25 40.3125 55.828125 40.3125 55.3125 C 40.3125 54.796875 39.890625 54.375 39.375 54.375 L 36.5625 54.375 L 36.5625 51.5625 L 55.3125 51.5625 C 56.53125 51.5625 57.5625 50.765625 57.9375 49.6875 L 56.953125 49.6875 C 56.53125 49.6875 56.15625 49.640625 55.78125 49.5 C 55.640625 49.59375 55.453125 49.6875 55.265625 49.6875 L 10.3125 49.6875 C 9.796875 49.6875 9.375 49.265625 9.375 48.75 L 9.375 45.9375 L 49.03125 45.9375 L 48.890625 45.796875 C 48.421875 45.328125 48.046875 44.71875 47.859375 44.0625 L 9.375 44.0625 L 9.375 21.5625 C 9.375 21.046875 9.796875 20.625 10.3125 20.625 L 55.3125 20.625 C 55.828125 20.625 56.25 21.046875 56.25 21.5625 L 56.25 26.34375 C 56.484375 26.296875 56.71875 26.25 57 26.25 L 58.125 26.25 L 58.125 21.5625 C 58.125 20.015625 56.859375 18.75 55.3125 18.75 L 10.3125 18.75 C 8.765625 18.75 7.5 20.015625 7.5 21.5625 L 7.5 48.75 C 7.5 50.296875 8.765625 51.5625 10.3125 51.5625 L 29.0625 51.5625 Z M 30.9375 51.5625 L 34.6875 51.5625 L 34.6875 54.375 L 30.9375 54.375 Z M 30.9375 51.5625 " fill-opacity="1" fill-rule="nonzero"></path></g><g clip-path="url(#968ad5c2a1)"><path fill="#07db3c" d="M 65.671875 35.015625 C 65.578125 34.78125 65.484375 34.59375 65.390625 34.359375 C 66 33.46875 65.90625 32.25 65.109375 31.453125 L 64.171875 30.515625 C 63.75 30.09375 63.140625 29.859375 62.53125 29.859375 C 62.0625 29.859375 61.640625 30 61.265625 30.234375 C 61.078125 30.140625 60.84375 30.046875 60.609375 29.953125 C 60.375 28.875 59.4375 28.125 58.359375 28.125 L 57.046875 28.125 C 55.921875 28.125 54.984375 28.921875 54.796875 29.953125 C 54.5625 30.046875 54.375 30.140625 54.140625 30.234375 C 53.765625 30 53.34375 29.859375 52.875 29.859375 C 52.265625 29.859375 51.65625 30.09375 51.234375 30.515625 L 50.296875 31.453125 C 49.5 32.25 49.40625 33.46875 50.015625 34.359375 C 49.921875 34.546875 49.828125 34.78125 49.734375 35.015625 C 48.65625 35.25 47.90625 36.1875 47.90625 37.265625 L 47.90625 38.578125 C 47.90625 39.703125 48.703125 40.640625 49.734375 40.828125 C 49.828125 41.0625 49.921875 41.25 50.015625 41.484375 C 49.78125 41.859375 49.640625 42.28125 49.640625 42.75 C 49.640625 43.359375 49.875 43.96875 50.296875 44.390625 L 51.234375 45.328125 C 51.65625 45.75 52.265625 45.984375 52.875 45.984375 C 53.34375 45.984375 53.765625 45.84375 54.140625 45.609375 C 54.328125 45.703125 54.5625 45.796875 54.796875 45.890625 C 55.03125 46.96875 55.96875 47.71875 57.046875 47.71875 L 58.359375 47.71875 C 59.484375 47.71875 60.421875 46.921875 60.609375 45.890625 C 60.84375 45.796875 61.03125 45.703125 61.265625 45.609375 C 61.640625 45.84375 62.0625 45.984375 62.53125 45.984375 C 63.140625 45.984375 63.75 45.75 64.171875 45.328125 L 65.109375 44.390625 C 65.53125 43.96875 65.765625 43.359375 65.765625 42.75 C 65.765625 42.28125 65.625 41.859375 65.390625 41.484375 C 65.484375 41.296875 65.578125 41.0625 65.671875 40.828125 C 66.75 40.59375 67.5 39.65625 67.5 38.578125 L 67.5 37.265625 C 67.5 36.1875 66.703125 35.25 65.671875 35.015625 Z M 65.625 38.625 C 65.625 38.859375 65.4375 39.046875 65.203125 39.046875 L 64.21875 39.046875 C 64.03125 40.078125 63.65625 40.96875 63.09375 41.765625 L 63.796875 42.46875 C 63.984375 42.65625 63.984375 42.9375 63.796875 43.078125 L 62.859375 44.015625 C 62.765625 44.109375 62.671875 44.15625 62.53125 44.15625 C 62.390625 44.15625 62.296875 44.109375 62.203125 44.015625 L 61.5 43.3125 C 60.703125 43.875 59.765625 44.296875 58.78125 44.4375 L 58.78125 45.421875 C 58.78125 45.65625 58.59375 45.84375 58.359375 45.84375 L 57.046875 45.84375 C 56.8125 45.84375 56.625 45.65625 56.625 45.421875 L 56.625 44.53125 C 55.59375 44.34375 54.703125 43.96875 53.90625 43.40625 L 53.109375 44.0625 C 53.015625 44.15625 52.921875 44.203125 52.78125 44.203125 C 52.640625 44.203125 52.59375 44.15625 52.5 44.0625 L 51.5625 43.125 C 51.375 42.9375 51.375 42.65625 51.5625 42.515625 L 52.265625 41.8125 C 51.703125 41.015625 51.28125 40.078125 51.140625 39.09375 L 50.15625 39.09375 C 49.921875 39.09375 49.734375 38.90625 49.734375 38.671875 L 49.734375 37.359375 C 49.734375 37.125 49.921875 36.9375 50.15625 36.9375 L 51.09375 36.9375 C 51.28125 35.90625 51.65625 35.015625 52.21875 34.21875 L 51.5625 33.421875 C 51.375 33.234375 51.375 32.953125 51.5625 32.8125 L 52.5 31.875 C 52.59375 31.78125 52.6875 31.734375 52.828125 31.734375 C 52.96875 31.734375 53.0625 31.78125 53.15625 31.875 L 53.859375 32.578125 C 54.65625 32.015625 55.59375 31.59375 56.578125 31.453125 L 56.578125 30.46875 C 56.578125 30.234375 56.765625 30.046875 57 30.046875 L 58.3125 30.046875 C 58.546875 30.046875 58.734375 30.234375 58.734375 30.46875 L 58.734375 31.40625 C 59.765625 31.59375 60.65625 31.96875 61.453125 32.53125 L 62.15625 31.828125 C 62.25 31.734375 62.34375 31.6875 62.484375 31.6875 C 62.625 31.6875 62.71875 31.734375 62.8125 31.828125 L 63.75 32.765625 C 63.9375 32.953125 63.9375 33.234375 63.75 33.375 L 63.046875 34.078125 C 63.609375 34.875 64.03125 35.8125 64.171875 36.796875 L 65.15625 36.796875 C 65.390625 36.796875 65.578125 36.984375 65.578125 37.21875 L 65.578125 38.625 Z M 65.625 38.625 " fill-opacity="1" fill-rule="nonzero"></path></g><path fill="#07db3c" d="M 57.65625 34.21875 C 55.59375 34.21875 53.90625 35.90625 53.90625 37.96875 C 53.90625 40.03125 55.59375 41.71875 57.65625 41.71875 C 59.71875 41.71875 61.40625 40.03125 61.40625 37.96875 C 61.40625 35.90625 59.71875 34.21875 57.65625 34.21875 Z M 57.65625 39.84375 C 56.625 39.84375 55.78125 39 55.78125 37.96875 C 55.78125 36.9375 56.625 36.09375 57.65625 36.09375 C 58.6875 36.09375 59.53125 36.9375 59.53125 37.96875 C 59.53125 39 58.6875 39.84375 57.65625 39.84375 Z M 57.65625 39.84375 " fill-opacity="1" fill-rule="nonzero"></path></svg>